<svg id="Layer_1" data-name="Layer 1" xmlns="http://www.w3.org/2000/svg" xmlns:xlink="http://www.w3.org/1999/xlink" viewBox="0 0 323.79 108.2"><defs><style>.cls-1,.cls-2{fill:none;}.cls-2{clip-rule:evenodd;}.cls-3{isolation:isolate;}.cls-4{clip-path:url(#clip-path);}.cls-5{clip-path:url(#clip-path-2);}.cls-6{fill:#004478;}.cls-7{clip-path:url(#clip-path-4);}.cls-8{fill:#07304b;}.cls-9{clip-path:url(#clip-path-6);}.cls-10{fill:#0074e1;}.cls-11{clip-path:url(#clip-path-8);}.cls-12{clip-path:url(#clip-path-10);}.cls-13{clip-path:url(#clip-path-12);}</style><clipPath id="clip-path" transform="translate(4.19 4.19)"><rect class="cls-1" width="315.4" height="99.82"/></clipPath><clipPath id="clip-path-2" transform="translate(4.19 4.19)"><circle class="cls-1" cx="33.55" cy="33.55" r="33.55"/></clipPath><clipPath id="clip-path-4" transform="translate(4.19 4.19)"><circle class="cls-1" cx="157.7" cy="33.55" r="33.55"/></clipPath><clipPath id="clip-path-6" transform="translate(4.19 4.19)"><circle class="cls-1" cx="281.85" cy="33.55" r="33.55"/></clipPath><clipPath id="clip-path-8" transform="translate(4.19 4.19)"><path class="cls-2" d="M51.42,95l1.15-3.86h1.78l-2.49,7.17-0.14.33a1.89,1.89,0,0,1-1.83,1.22,2.61,2.61,0,0,1-.73-0.11V98.45h0.25a1.36,1.36,0,0,0,.7-0.14,0.94,0.94,0,0,0,.36-0.48l0.19-.51L48.48,91.1h1.78ZM48.3,92.65a4.5,4.5,0,0,0-.6,0,1.21,1.21,0,0,0-1.23.64V97.3H44.82V91.1h1.57l0,0.74A1.54,1.54,0,0,1,47.81,91a1.74,1.74,0,0,1,.52.07Zm-7.56,3.5A1.43,1.43,0,0,0,41.42,96a1.07,1.07,0,0,0,.46-0.44V94.48H41.26q-1.24,0-1.32.86v0.1a0.66,0.66,0,0,0,.22.51A0.85,0.85,0,0,0,40.75,96.15Zm1.37,1.15A1.84,1.84,0,0,1,42,96.75a2,2,0,0,1-1.57.67,2.2,2.2,0,0,1-1.51-.53,1.7,1.7,0,0,1-.6-1.33A1.75,1.75,0,0,1,39,94a3.61,3.61,0,0,1,2.11-.53h0.76V93.16a1,1,0,0,0-.22-0.69,0.87,0.87,0,0,0-.7-0.26,1,1,0,0,0-.66.2,0.68,0.68,0,0,0-.24.55H38.41a1.66,1.66,0,0,1,.33-1,2.2,2.2,0,0,1,.94-0.72A3.43,3.43,0,0,1,41.05,91a2.71,2.71,0,0,1,1.82.58,2,2,0,0,1,.67,1.62v2.69a3,3,0,0,0,.25,1.34v0.1H42.12ZM29.91,91.1L30,91.79A2.18,2.18,0,0,1,31.74,91a1.65,1.65,0,0,1,1.65.95A2.13,2.13,0,0,1,35.25,91a1.85,1.85,0,0,1,1.5.59,2.7,2.7,0,0,1,.49,1.77v4H35.59v-4a1.18,1.18,0,0,0-.21-0.77,0.91,0.91,0,0,0-.73-0.24,1,1,0,0,0-1,.71V97.3H32v-4a1.17,1.17,0,0,0-.21-0.78A0.92,0.92,0,0,0,31,92.33a1.07,1.07,0,0,0-1,.58V97.3H28.36V91.1h1.55Zm-4.68-1.61a0.82,0.82,0,0,1,.25-0.61,1.07,1.07,0,0,1,1.36,0,0.88,0.88,0,0,1,0,1.23,1.06,1.06,0,0,1-1.35,0A0.81,0.81,0,0,1,25.23,89.49ZM27,97.3H25.33V91.1H27v6.2Zm-2.55-4.65a4.5,4.5,0,0,0-.6,0,1.21,1.21,0,0,0-1.23.64V97.3H21V91.1h1.57l0,0.74A1.54,1.54,0,0,1,24,91a1.74,1.74,0,0,1,.52.07ZM15.21,93h1.54a1.51,1.51,0,0,0,1-.32,1.17,1.17,0,0,0,.36-0.92,1.38,1.38,0,0,0-.36-1,1.35,1.35,0,0,0-1-.39H15.21V93Zm0,1.39V97.3H13.49V89h3.26a3.77,3.77,0,0,1,1.65.34,2.54,2.54,0,0,1,1.1,1,2.73,2.73,0,0,1,.38,1.44A2.4,2.4,0,0,1,19,93.65a3.5,3.5,0,0,1-2.33.71H15.21Z"/></clipPath><clipPath id="clip-path-10" transform="translate(4.19 4.19)"><path class="cls-2" d="M183.18,95l1.15-3.86h1.78l-2.49,7.17-0.14.33a1.89,1.89,0,0,1-1.83,1.22,2.61,2.61,0,0,1-.73-0.11V98.45h0.25a1.36,1.36,0,0,0,.7-0.14,0.94,0.94,0,0,0,.36-0.48l0.2-.51-2.17-6.22H182Zm-3.11-2.31a4.5,4.5,0,0,0-.6,0,1.21,1.21,0,0,0-1.23.64V97.3h-1.66V91.1h1.57l0,0.74a1.54,1.54,0,0,1,1.38-.85,1.74,1.74,0,0,1,.52.07Zm-7.56,3.5a1.43,1.43,0,0,0,.68-0.16,1.07,1.07,0,0,0,.46-0.44V94.48H173q-1.24,0-1.32.86v0.1a0.66,0.66,0,0,0,.22.51A0.85,0.85,0,0,0,172.51,96.15Zm1.37,1.15a1.84,1.84,0,0,1-.17-0.56,2,2,0,0,1-1.57.67,2.2,2.2,0,0,1-1.51-.53,1.7,1.7,0,0,1-.6-1.33,1.75,1.75,0,0,1,.73-1.51,3.61,3.61,0,0,1,2.11-.53h0.76V93.16a1,1,0,0,0-.22-0.69,0.87,0.87,0,0,0-.7-0.26,1,1,0,0,0-.66.2,0.68,0.68,0,0,0-.24.55h-1.66a1.66,1.66,0,0,1,.33-1,2.2,2.2,0,0,1,.94-0.72,3.43,3.43,0,0,1,1.36-.26,2.71,2.71,0,0,1,1.82.58,2,2,0,0,1,.67,1.62v2.69a3,3,0,0,0,.25,1.34v0.1h-1.67Zm-8.81-3a2.44,2.44,0,0,0,.3,1.34,1,1,0,0,0,.88.46,1.11,1.11,0,0,0,1.08-.65V93a1.09,1.09,0,0,0-1.07-.65Q165.06,92.33,165.06,94.28Zm-1.66-.12a3.74,3.74,0,0,1,.65-2.31,2.11,2.11,0,0,1,1.78-.86,1.9,1.9,0,0,1,1.5.68V88.5H169V97.3h-1.5l-0.08-.66a2,2,0,0,1-1.59.77,2.11,2.11,0,0,1-1.76-.86A3.86,3.86,0,0,1,163.41,94.16Zm-4.79-3.06,0.05,0.72a2.17,2.17,0,0,1,1.78-.83,1.8,1.8,0,0,1,1.47.58,2.7,2.7,0,0,1,.49,1.73v4h-1.66v-4a1.08,1.08,0,0,0-.23-0.77,1,1,0,0,0-.76-0.24,1.14,1.14,0,0,0-1,.6V97.3h-1.66V91.1h1.56Zm-6.77,3.17a2.31,2.31,0,0,0,.33,1.35,1.2,1.2,0,0,0,1.89,0,2.53,2.53,0,0,0,.34-1.48,2.29,2.29,0,0,0-.34-1.34,1.1,1.1,0,0,0-1-.48,1.08,1.08,0,0,0-.94.47A2.57,2.57,0,0,0,151.85,94.26Zm-1.66-.12a3.68,3.68,0,0,1,.36-1.65,2.6,2.6,0,0,1,1-1.12,3,3,0,0,1,1.55-.4,2.83,2.83,0,0,1,2,.77,3.08,3.08,0,0,1,.89,2.09v0.42a3.24,3.24,0,0,1-.8,2.29,3.09,3.09,0,0,1-4.28,0,3.3,3.3,0,0,1-.8-2.34V94.14Zm-3.29,1.94a1.09,1.09,0,0,0,.75-0.25,0.88,0.88,0,0,0,.3-0.67h1.55a2.13,2.13,0,0,1-.34,1.16,2.27,2.27,0,0,1-.93.81,2.9,2.9,0,0,1-1.3.29,2.69,2.69,0,0,1-2.1-.85,3.35,3.35,0,0,1-.77-2.34V94.13a3.31,3.31,0,0,1,.76-2.29,2.66,2.66,0,0,1,2.09-.85,2.61,2.61,0,0,1,1.87.66,2.34,2.34,0,0,1,.71,1.76h-1.55a1.13,1.13,0,0,0-.3-0.78,1.11,1.11,0,0,0-1.63.12,2.44,2.44,0,0,0-.3,1.37v0.17a2.47,2.47,0,0,0,.29,1.38A1,1,0,0,0,146.9,96.08Zm-6.26-3.76a1,1,0,0,0-.8.33,1.72,1.72,0,0,0-.39,1h2.31V93.48a1.23,1.23,0,0,0-.3-0.85A1.07,1.07,0,0,0,140.64,92.33Zm0.19,5.09a3,3,0,0,1-2.22-.84,3,3,0,0,1-.86-2.23V94.19a3.75,3.75,0,0,1,.36-1.67,2.65,2.65,0,0,1,1-1.14,2.87,2.87,0,0,1,1.51-.4,2.58,2.58,0,0,1,2,.8,3.26,3.26,0,0,1,.73,2.28v0.68h-4a1.54,1.54,0,0,0,.48,1,1.46,1.46,0,0,0,1,.37,1.79,1.79,0,0,0,1.5-.69l0.81,0.91a2.49,2.49,0,0,1-1,.82A3.31,3.31,0,0,1,140.83,97.42Zm-5.64-2.31a0.88,0.88,0,0,0-.34-0.75,4.51,4.51,0,0,0-1.24-.55,8.78,8.78,0,0,1-1.42-.57,2.31,2.31,0,0,1-1.42-2.07,2,2,0,0,1,.38-1.21,2.49,2.49,0,0,1,1.1-.83,4.12,4.12,0,0,1,1.6-.3,3.75,3.75,0,0,1,1.59.32,2.54,2.54,0,0,1,1.09.91,2.39,2.39,0,0,1,.39,1.34H135.2a1.13,1.13,0,0,0-.36-0.89,1.48,1.48,0,0,0-1-.32,1.59,1.59,0,0,0-1,.27,0.84,0.84,0,0,0-.35.7,0.81,0.81,0,0,0,.41.68,4.63,4.63,0,0,0,1.21.52,5.22,5.22,0,0,1,2.14,1.1,2.18,2.18,0,0,1,.67,1.63,2,2,0,0,1-.82,1.7,3.59,3.59,0,0,1-2.21.62,4.26,4.26,0,0,1-1.75-.35,2.78,2.78,0,0,1-1.21-1,2.47,2.47,0,0,1-.42-1.42h1.73q0,1.38,1.65,1.38a1.61,1.61,0,0,0,1-.25A0.81,0.81,0,0,0,135.19,95.11Z"/></clipPath><clipPath id="clip-path-12" transform="translate(4.19 4.19)"><path class="cls-2" d="M306.25,89.57V91.1h1.06v1.22h-1.06v3.1a0.74,0.74,0,0,0,.13.49,0.66,0.66,0,0,0,.5.15,2.64,2.64,0,0,0,.49,0v1.26a3.41,3.41,0,0,1-1,.15,1.58,1.58,0,0,1-1.78-1.76V92.32h-0.91V91.1h0.91V89.57h1.66Zm-6.94,2.2A2.07,2.07,0,0,1,301,91q2,0,2,2.35v4h-1.66V93.38a1.15,1.15,0,0,0-.23-0.79,1,1,0,0,0-.76-0.26,1.13,1.13,0,0,0-1.06.56V97.3h-1.66V88.5h1.66v3.28Zm-6.9,2.5a2.26,2.26,0,0,0,.34,1.32,1.08,1.08,0,0,0,.93.48,1.15,1.15,0,0,0,1.08-.57V92.9a1.15,1.15,0,0,0-1.07-.57,1.08,1.08,0,0,0-.94.49A2.55,2.55,0,0,0,292.41,94.28Zm-1.66-.12a3.64,3.64,0,0,1,.68-2.3,2.2,2.2,0,0,1,1.83-.87,1.93,1.93,0,0,1,1.59.7l0.07-.58h1.5v6a2.65,2.65,0,0,1-.37,1.42,2.38,2.38,0,0,1-1,.92,3.66,3.66,0,0,1-1.57.32,3.4,3.4,0,0,1-1.33-.27,2.36,2.36,0,0,1-1-.7l0.73-1a1.94,1.94,0,0,0,1.5.69,1.42,1.42,0,0,0,1-.35,1.32,1.32,0,0,0,.37-1V96.77a1.92,1.92,0,0,1-1.51.65,2.2,2.2,0,0,1-1.81-.87,3.64,3.64,0,0,1-.69-2.32V94.16Zm-2.88-4.66a0.82,0.82,0,0,1,.25-0.61,1.07,1.07,0,0,1,1.36,0,0.88,0.88,0,0,1,0,1.23,1.06,1.06,0,0,1-1.35,0A0.81,0.81,0,0,1,287.87,89.49Zm1.76,7.81H288V91.1h1.66v6.2Zm-3.11,0h-1.66V88.5h1.66V97.3Zm-6.7-5.53a2.07,2.07,0,0,1,1.66-.79q2,0,2,2.35v4h-1.66V93.38a1.15,1.15,0,0,0-.23-0.79,1,1,0,0,0-.76-0.26,1.13,1.13,0,0,0-1.06.56V97.3h-1.66V88.5h1.66v3.28Zm-6.9,2.5a2.26,2.26,0,0,0,.34,1.32,1.08,1.08,0,0,0,.93.48,1.15,1.15,0,0,0,1.08-.57V92.9a1.15,1.15,0,0,0-1.07-.57,1.08,1.08,0,0,0-.94.49A2.55,2.55,0,0,0,272.91,94.28Zm-1.66-.12a3.64,3.64,0,0,1,.68-2.3,2.2,2.2,0,0,1,1.83-.87,1.93,1.93,0,0,1,1.59.7l0.07-.58h1.5v6a2.65,2.65,0,0,1-.37,1.42,2.37,2.37,0,0,1-1,.92,3.66,3.66,0,0,1-1.57.32,3.4,3.4,0,0,1-1.33-.27,2.36,2.36,0,0,1-1-.7l0.73-1a1.94,1.94,0,0,0,1.5.69,1.42,1.42,0,0,0,1-.35,1.32,1.32,0,0,0,.37-1V96.77a1.92,1.92,0,0,1-1.51.65,2.2,2.2,0,0,1-1.81-.87,3.64,3.64,0,0,1-.69-2.32V94.16Zm-2.88-4.66a0.82,0.82,0,0,1,.25-0.61,1.07,1.07,0,0,1,1.36,0,0.88,0.88,0,0,1,0,1.23,1.06,1.06,0,0,1-1.35,0A0.81,0.81,0,0,1,268.37,89.49Zm1.76,7.81h-1.66V91.1h1.66v6.2Zm-3.14,0h-1.72V93.73h-3.35V97.3h-1.72V89h1.72v3.38h3.35V89H267V97.3Z"/></clipPath></defs><title>01_colours</title><g class="cls-3"><g class="cls-4"><g class="cls-5"><g class="cls-4"><rect class="cls-6" width="75.49" height="75.49"/></g></g><g class="cls-7"><g class="cls-4"><rect class="cls-8" x="124.15" width="75.49" height="75.49"/></g></g><g class="cls-9"><g class="cls-4"><rect class="cls-10" x="248.29" width="75.49" height="75.49"/></g></g><g class="cls-11"><g class="cls-4"><rect x="13.49" y="88.64" width="49.24" height="19.56"/></g></g><g class="cls-12"><g class="cls-4"><rect x="130.51" y="88.5" width="63.98" height="19.7"/></g></g><g class="cls-13"><g class="cls-4"><rect x="260.19" y="88.5" width="55.57" height="19.64"/></g></g></g></g></svg>