<svg id="Layer_1" data-name="Layer 1" xmlns="http://www.w3.org/2000/svg" viewBox="0 0 586 188.09"><defs><style>.cls-1{fill:#00457c;fill-rule:evenodd;}.cls-2,.cls-3{fill:none;stroke-linecap:square;stroke-miterlimit:10;}.cls-2{stroke:#e0e0e0;}.cls-3{stroke:#fff;}</style></defs><title>01_menubar</title><path class="cls-1" d="M464,64.6a2,2,0,0,1,2-2h46a2,2,0,0,1,2,2v4a2,2,0,0,1-2,2H466a2,2,0,0,1-2-2v-4Z" transform="translate(0.5 -0.15)"/><path class="cls-1" d="M464,79.3a2,2,0,0,1,2-2h46a2,2,0,0,1,2,2v4a2,2,0,0,1-2,2H466a2,2,0,0,1-2-2v-4Z" transform="translate(0.5 -0.15)"/><path class="cls-1" d="M464,93.6a2,2,0,0,1,2-2h46a2,2,0,0,1,2,2v4a2,2,0,0,1-2,2H466a2,2,0,0,1-2-2v-4Z" transform="translate(0.5 -0.15)"/><path class="cls-1" d="M305.45,85.7A10.5,10.5,0,1,1,316,75.2,10.52,10.52,0,0,1,305.45,85.7Zm24.07,8.75-9.49-8a4.25,4.25,0,0,0-2.88-1.24,15,15,0,1,0-1.68,1.67,4.21,4.21,0,0,0,1.25,2.87l8.07,9.45a3.45,3.45,0,0,0,5,.29A3.41,3.41,0,0,0,329.52,94.45Z" transform="translate(0.5 -0.15)"/><line class="cls-2" x1="399.82" y1="0.5" x2="399.82" y2="187.59"/><line class="cls-3" x1="585.5" y1="0.5" x2="585.5" y2="187.59"/><line class="cls-3" x1="0.5" y1="0.5" x2="0.5" y2="187.59"/><line class="cls-2" x1="214.2" y1="0.5" x2="214.2" y2="187.59"/><path class="cls-1" d="M506.26,126.22h2.15v9.58a5.27,5.27,0,0,0,.85,3.33,3.27,3.27,0,0,0,2.69,1,3,3,0,0,0,2.56-1,5.56,5.56,0,0,0,.75-3.32v-9.65h1.89v9.62a6.64,6.64,0,0,1-1.28,4.52,5.23,5.23,0,0,1-4.07,1.42,5.45,5.45,0,0,1-4.19-1.47,6.51,6.51,0,0,1-1.35-4.53v-9.56ZM490.87,141.4V126.22H493l7.64,11.72V126.22h1.85V141.4h-2.1l-7.65-11.72V141.4h-1.85Zm-11.38,0V126.22H488v1.61h-6.33v4.87h5.3v1.59h-5.3v5.5h6.77v1.61h-8.92Zm-18.09,0V126.22h3l4.2,11.74,4.33-11.74h2.67V141.4h-2V129.05l-4.18,11.33H467.3L463.24,129V141.4H461.4Z" transform="translate(0.5 -0.15)"/><path class="cls-1" d="M336.54,141.4V126.22h2.15v6.4h7.22v-6.4h2.15V141.4h-2.15v-7.17h-7.22v7.17h-2.15Zm-8,.38A7.09,7.09,0,0,1,323,139.7a9.87,9.87,0,0,1,0-11.77,7.22,7.22,0,0,1,5.53-2.09,20.58,20.58,0,0,1,4.78.67v2a16.08,16.08,0,0,0-4.81-1.08,4.64,4.64,0,0,0-3.82,1.67,7.31,7.31,0,0,0-1.35,4.72,6.78,6.78,0,0,0,1.45,4.58,4.94,4.94,0,0,0,3.95,1.68,9.81,9.81,0,0,0,4.61-1.32v1.85A10.53,10.53,0,0,1,328.51,141.78Zm-17.65-8.41h0.7q4.06,0,4.06-3.19,0-2.35-3.4-2.35h-1.35v5.54Zm-2.13,8V126.22h4.59a5.12,5.12,0,0,1,3.35,1,3.43,3.43,0,0,1,1.16,2.8,4.41,4.41,0,0,1-3.07,4.31l5.07,7.11h-2.65L312.88,135h-2v6.42h-2.13Zm-4.52,0-1.65-4.2h-6.43l-1.67,4.2h-2l6-15.18h2.13l5.93,15.18h-2.33Zm-2.28-5.8-2.58-6.54-2.59,6.54h5.18Zm-19.07,5.8V126.22h8.48v1.61H285v4.87h5.3v1.59H285v5.5h6.77v1.61h-8.92Zm-8.34.38a15.13,15.13,0,0,1-3.91-.67V139a10.61,10.61,0,0,0,4.21,1.19,3,3,0,0,0,2-.67,2.2,2.2,0,0,0,.77-1.75,2.33,2.33,0,0,0-.51-1.52,6.73,6.73,0,0,0-1.87-1.39l-1-.6a9.86,9.86,0,0,1-2.73-2.09,3.51,3.51,0,0,1-.79-2.28A3.7,3.7,0,0,1,272,127a4.69,4.69,0,0,1,3.24-1.13,12.89,12.89,0,0,1,3.7.58v2a11.05,11.05,0,0,0-3.58-.94,2.82,2.82,0,0,0-1.85.59,1.85,1.85,0,0,0-.73,1.5,1.93,1.93,0,0,0,.53,1.34,8.47,8.47,0,0,0,1.95,1.39l1.09,0.62a9.45,9.45,0,0,1,2.75,2.11,3.76,3.76,0,0,1,.78,2.39,3.91,3.91,0,0,1-1.46,3.18A5.91,5.91,0,0,1,274.53,141.78Z" transform="translate(0.5 -0.15)"/></svg>