<svg id="Layer_1" data-name="Layer 1" xmlns="http://www.w3.org/2000/svg" viewBox="0 0 950.94 101.92"><defs><style>.cls-1{fill:#004478;}.cls-1,.cls-2{fill-rule:evenodd;}.cls-3{fill:none;}</style></defs><title>01_roboto</title><path class="cls-1" d="M893.39,62.72a40.15,40.15,0,0,1-1.22,9.93,31,31,0,0,1-3.4,8.42,15.51,15.51,0,0,1-4.82,5.28l-0.43-1a14.81,14.81,0,0,0,4.4-5.29,33.4,33.4,0,0,0,3.14-8.26,40.8,40.8,0,0,0,1.11-9.65A37.92,37.92,0,0,0,891,52.93a33.23,33.23,0,0,0-3.18-8.23,14.41,14.41,0,0,0-4.3-5.1l0.43-1a15.41,15.41,0,0,1,4.8,5.41,32.6,32.6,0,0,1,3.43,8.55A41.16,41.16,0,0,1,893.39,62.72ZM872,62.26a39.3,39.3,0,0,1,1.21-9.69A32.64,32.64,0,0,1,876.65,44a15.42,15.42,0,0,1,4.8-5.41l0.43,1a14.34,14.34,0,0,0-4.22,4.95,32.62,32.62,0,0,0-3.17,8,38.07,38.07,0,0,0-1.25,9v1.19a38.27,38.27,0,0,0,1.14,9.16,33.13,33.13,0,0,0,3.17,8.28,14.55,14.55,0,0,0,4.33,5.17l-0.43,1a15.52,15.52,0,0,1-4.82-5.28,31,31,0,0,1-3.4-8.42A42.1,42.1,0,0,1,872,62.26Zm-14.33-9.83-8.28-2.83,0.41-1.23,8.26,3,0-9h1.28l-0.16,9,8-3.26,0.46,1.21-8.21,3.12,5.68,7.23-1.07.75-5.52-7.34-5.2,7.41-1-.73ZM827,49q0,3.6,3.42,7.64l4-3.17q3.31-2.76,3.31-5.47a4.56,4.56,0,0,0-1.4-3.44,5,5,0,0,0-3.61-1.35,5.51,5.51,0,0,0-4.14,1.61A5.75,5.75,0,0,0,827,49Zm5.4,25.88a11.15,11.15,0,0,0,4.82-1.08,12.14,12.14,0,0,0,4-3.09l-11-12.47-1.19.94a21.36,21.36,0,0,0-4,4.36,7.5,7.5,0,0,0-1.31,4.11,6.56,6.56,0,0,0,2.36,5.25A9.41,9.41,0,0,0,832.4,74.85Zm-2.9-17.51a20.68,20.68,0,0,1-2.89-4.42,9.49,9.49,0,0,1-.88-3.9,7,7,0,0,1,1.93-5.14,6.8,6.8,0,0,1,5-1.93,6.28,6.28,0,0,1,4.57,1.68A5.79,5.79,0,0,1,839,48q0,3.1-4.29,6.66l-3.56,2.83L842,69.74a14.23,14.23,0,0,0,2.62-8.53h1.25a15.48,15.48,0,0,1-3,9.49l4.33,4.93h-1.53l-3.58-4q-4.47,4.47-9.65,4.47a10.72,10.72,0,0,1-7.24-2.29,7.76,7.76,0,0,1-2.66-6.19,8.58,8.58,0,0,1,1.29-4.41,21.09,21.09,0,0,1,4.55-4.94Zm-19.9-13.23L803.54,59H802.2L809,42.42h1.19L817,59h-1.39ZM774.53,72.64l-1-.71,16.21-26,1,0.71ZM786,69.27a5.93,5.93,0,0,0,1.36,4A4.53,4.53,0,0,0,791,74.85a4.43,4.43,0,0,0,3.57-1.59,6.17,6.17,0,0,0,1.33-4.12V67.49a5.93,5.93,0,0,0-1.33-4.08,4.58,4.58,0,0,0-3.61-1.51,4.51,4.51,0,0,0-3.59,1.54A6.1,6.1,0,0,0,786,67.58v1.69Zm-1.25-1.78a7,7,0,0,1,1.77-4.89,6,6,0,0,1,8.85,0,7.23,7.23,0,0,1,1.77,5.05v1.62a7,7,0,0,1-1.77,4.89A5.68,5.68,0,0,1,791,76.11a5.8,5.8,0,0,1-4.44-1.94,7.1,7.1,0,0,1-1.79-5V67.49Zm-16-16.92a5.92,5.92,0,0,0,1.36,4,4.53,4.53,0,0,0,3.64,1.6,4.42,4.42,0,0,0,3.53-1.57,6.1,6.1,0,0,0,1.35-4.11V48.81a6,6,0,0,0-1.36-4,4.48,4.48,0,0,0-3.57-1.57,4.54,4.54,0,0,0-3.56,1.57,6.11,6.11,0,0,0-1.39,4.2v1.6Zm-1.25-1.76a7,7,0,0,1,1.78-4.9,5.73,5.73,0,0,1,4.42-2,5.67,5.67,0,0,1,4.42,2,7.25,7.25,0,0,1,1.76,5v1.64a7,7,0,0,1-1.74,4.86,5.63,5.63,0,0,1-4.39,2,5.82,5.82,0,0,1-4.46-1.94,7.1,7.1,0,0,1-1.79-5V48.81Zm-7,19a6.77,6.77,0,0,0-.79-3.43,7.45,7.45,0,0,0-2.66-2.5,29.84,29.84,0,0,0-5.53-2.41A23.38,23.38,0,0,1,746.17,57a7.81,7.81,0,0,1-2.57-2.79,8.3,8.3,0,0,1-.83-3.88,7.72,7.72,0,0,1,2.44-6A9.54,9.54,0,0,1,751.58,42V37.7h1.25V42a8.9,8.9,0,0,1,6.48,2.79,10.14,10.14,0,0,1,2.28,7h-1.23a8.78,8.78,0,0,0-2.2-6.24,7.82,7.82,0,0,0-6-2.36,8.56,8.56,0,0,0-5.92,2A6.56,6.56,0,0,0,744,50.27a7.15,7.15,0,0,0,.74,3.53,6.9,6.9,0,0,0,2.46,2.36,25,25,0,0,0,4.85,2.13,41.19,41.19,0,0,1,4.79,1.9,10.51,10.51,0,0,1,2.76,1.93,7.2,7.2,0,0,1,1.63,2.44,8.54,8.54,0,0,1,.54,3.17,7.74,7.74,0,0,1-2.36,5.87,9.64,9.64,0,0,1-6.33,2.47v4.29h-1.25V76.11q-4.84-.18-7.48-2.75a9.37,9.37,0,0,1-2.65-7.06h1.23a8.09,8.09,0,0,0,2.52,6.32,9.83,9.83,0,0,0,6.85,2.28,8.6,8.6,0,0,0,5.91-2.05A6.49,6.49,0,0,0,760.54,67.78Zm-38.71-2.69h8.28l2.19-12H724Zm8.07,1.19h-8.3l-1.69,9.35h-1.28l1.69-9.35h-6.18V65.09h6.41l2.17-12h-6.84V51.91h7.07l1.71-9.49h1.28l-1.73,9.49h8.32l1.73-9.49h1.28l-1.73,9.49h5.79v1.23h-6l-2.19,12h6.5v1.19h-6.71l-1.71,9.35h-1.28Zm-46.24,3a7.64,7.64,0,0,0,1.43,4.12,3.72,3.72,0,0,0,3,1.47,6.52,6.52,0,0,0,4.7-1.77,12.73,12.73,0,0,0,3-5.3l1-11.56a5.52,5.52,0,0,0-4.47-1.87,6.88,6.88,0,0,0-5.1,2.28,13,13,0,0,0-3.11,6.29A19.8,19.8,0,0,0,683.66,69.27Zm25.91-5.56a19.5,19.5,0,0,1-1.25,6.45,10.37,10.37,0,0,1-3,4.44,6.49,6.49,0,0,1-4.2,1.49,5,5,0,0,1-3.69-1.39,6.07,6.07,0,0,1-1.67-3.85q-2.51,5.25-7.59,5.25a4.93,4.93,0,0,1-4.62-2.84,13.53,13.53,0,0,1-1.11-7.56,16.85,16.85,0,0,1,3.31-9.16,8.29,8.29,0,0,1,6.66-3.43,7,7,0,0,1,4.52,1.51l1.19,1L697,68.95a6.35,6.35,0,0,0,.86,4.34,3.84,3.84,0,0,0,3.34,1.54,5.66,5.66,0,0,0,4.94-2.94,16.66,16.66,0,0,0,2.13-8.19q0.5-9.37-3.65-14.16T692,44.75a17.43,17.43,0,0,0-9.28,2.55,17.9,17.9,0,0,0-6.57,7.12,24.63,24.63,0,0,0-2.69,10.31,23.59,23.59,0,0,0,1.64,10.37,15.31,15.31,0,0,0,5.79,7.08A16.31,16.31,0,0,0,690,84.71a17,17,0,0,0,4.06-.49,13.14,13.14,0,0,0,3.47-1.33l0.55,1a11.67,11.67,0,0,1-3.77,1.49,19.48,19.48,0,0,1-4.39.54,18.13,18.13,0,0,1-9.81-2.57A15.61,15.61,0,0,1,674,76a25.9,25.9,0,0,1-1.77-11.28A26.34,26.34,0,0,1,675,53.51a18.23,18.23,0,0,1,7-7.45,19.56,19.56,0,0,1,10.11-2.61q8.94,0,13.42,5.23T709.57,63.7ZM663.11,74.51a1.25,1.25,0,0,1,.36-0.9,1.19,1.19,0,0,1,.89-0.38,1.28,1.28,0,0,1,1.28,1.28,1.19,1.19,0,0,1-.38.89,1.25,1.25,0,0,1-.9.36A1.25,1.25,0,0,1,663.11,74.51Zm1.69-8h-1.23V42.42h1.23V66.48ZM655.28,56q0-6-2.27-9.42a7.83,7.83,0,0,0-12.89,0q-2.25,3.39-2.25,9.52v6q0,6,2.3,9.42a7.34,7.34,0,0,0,6.43,3.4,7.25,7.25,0,0,0,6.41-3.4q2.26-3.4,2.26-9.53V56Zm1.23,6.11q0,6.68-2.6,10.34a9.1,9.1,0,0,1-14.62,0q-2.65-3.69-2.65-10.4V56q0-6.61,2.61-10.32a9.08,9.08,0,0,1,14.64,0q2.61,3.71,2.61,10.41v6Zm-36.75,1.64a9.58,9.58,0,0,0,6-2,9.7,9.7,0,0,0,3.51-5.27V55.06q0-5.77-2.38-8.81a8.16,8.16,0,0,0-6.83-3,7.37,7.37,0,0,0-4.42,1.44,9.48,9.48,0,0,0-3.09,3.91,12.68,12.68,0,0,0-1.11,5.23,11.81,11.81,0,0,0,1.07,5,8.7,8.7,0,0,0,3,3.61A7.43,7.43,0,0,0,619.76,63.72Zm9.49-4.61a9.77,9.77,0,0,1-3.75,4.23A10.51,10.51,0,0,1,619.76,65a8.63,8.63,0,0,1-4.93-1.47,9.89,9.89,0,0,1-3.42-4,13,13,0,0,1-1.23-5.66,14.14,14.14,0,0,1,1.25-6,10.25,10.25,0,0,1,3.51-4.28,8.63,8.63,0,0,1,5-1.55q5.13,0,7.82,3.34t2.71,9.64v3.81q0,8.42-3.74,12.83t-11,4.5h-1.09l0-1.23h1q6.66-.07,10.13-4.06T629.25,59.12Zm-26.12-8.37a6.9,6.9,0,0,0-2.44-5.39,9.61,9.61,0,0,0-12-.08,7,7,0,0,0-2.34,5.47A6.63,6.63,0,0,0,588.64,56a10.06,10.06,0,0,0,12.12,0A6.61,6.61,0,0,0,603.12,50.75Zm0.93,16.35a7,7,0,0,0-2.62-5.63,11.36,11.36,0,0,0-13.46,0,7.06,7.06,0,0,0-2.6,5.64,7,7,0,0,0,2.54,5.63,10.33,10.33,0,0,0,6.83,2.12,10.19,10.19,0,0,0,6.75-2.13A7,7,0,0,0,604.06,67.1Zm0.3-16.24a7.42,7.42,0,0,1-1.72,4.87,9,9,0,0,1-4.46,2.91,10,10,0,0,1,5.2,3.15,7.81,7.81,0,0,1,1.94,5.2,8.26,8.26,0,0,1-2.89,6.66,13.39,13.39,0,0,1-15.42,0A8.29,8.29,0,0,1,584.15,67,7.93,7.93,0,0,1,586,61.77a9.7,9.7,0,0,1,5.14-3.14,8.72,8.72,0,0,1-4.41-2.91,7.55,7.55,0,0,1-1.68-4.87,8.35,8.35,0,0,1,2.63-6.5,11.28,11.28,0,0,1,14,0A8.31,8.31,0,0,1,604.36,50.86ZM578.87,43.2L564.25,75.63H563l14.46-32h-19.8V42.42h21.21V43.2ZM543.29,55a10.07,10.07,0,0,0-5.85,1.84,7.8,7.8,0,0,0-3.34,4.6v2.92A10.77,10.77,0,0,0,536.76,72a9,9,0,0,0,6.91,2.9,7.1,7.1,0,0,0,5.84-3,11.42,11.42,0,0,0,2.3-7.24,10.32,10.32,0,0,0-2.28-7A7.87,7.87,0,0,0,543.29,55ZM549.1,42V43.2q-7,0-10.83,4.13t-4.15,11.59A9.58,9.58,0,0,1,538,55.18a11.22,11.22,0,0,1,5.5-1.38,8.82,8.82,0,0,1,7,3A11.56,11.56,0,0,1,553,64.68a13.9,13.9,0,0,1-1.19,5.79,9.74,9.74,0,0,1-3.35,4.12,8.32,8.32,0,0,1-4.83,1.49,10.88,10.88,0,0,1-5.52-1.41,9.87,9.87,0,0,1-3.85-4,12.94,12.94,0,0,1-1.44-6V60.58q0-8.85,4.17-13.73T549.1,42ZM509.25,58.25l1.55-15.83H527v1.21H511.92L510.57,57a9.25,9.25,0,0,1,3.14-1.6,12.64,12.64,0,0,1,3.82-.62,9.35,9.35,0,0,1,7.14,2.83A10.45,10.45,0,0,1,527.34,65q0,5.41-2.42,8.22A8.64,8.64,0,0,1,518,76.08a9.71,9.71,0,0,1-6.89-2.44,9.9,9.9,0,0,1-3-6.75h1.25a8.88,8.88,0,0,0,2.55,5.93,8.55,8.55,0,0,0,6,2q4.11,0,6.1-2.47t2-7.29a9.35,9.35,0,0,0-2.31-6.64A8.08,8.08,0,0,0,517.55,56a12.35,12.35,0,0,0-4.17.64,8.86,8.86,0,0,0-3.19,2Zm-27.44,7.09H496V43.91l-1.92,3.15Zm15.42,0H503v1.23h-5.75v9.05H496V66.57h-16.1V65.89l15.85-23.47h1.48V65.34Zm-35.65-7.28h2.78A9.8,9.8,0,0,0,470.66,56a6.36,6.36,0,0,0,2.41-5.11,7.42,7.42,0,0,0-2.16-5.61,8.27,8.27,0,0,0-6-2.08,8.82,8.82,0,0,0-6.16,2.19,7.39,7.39,0,0,0-2.42,5.75h-1.23a8.94,8.94,0,0,1,1.28-4.74,8.72,8.72,0,0,1,3.53-3.26,10.74,10.74,0,0,1,5-1.16,9.47,9.47,0,0,1,6.84,2.43A8.69,8.69,0,0,1,474.3,51a7.31,7.31,0,0,1-1.68,4.72,9,9,0,0,1-4.53,2.94,9.4,9.4,0,0,1,5.1,2.83A7.79,7.79,0,0,1,475,66.83a8.75,8.75,0,0,1-2.71,6.75,10.16,10.16,0,0,1-7.18,2.51,12.09,12.09,0,0,1-5.56-1.3,8.92,8.92,0,0,1-5.15-8.39h1.23a7.78,7.78,0,0,0,2.69,6.05,9.82,9.82,0,0,0,6.8,2.41,9.06,9.06,0,0,0,6.37-2.11,7.53,7.53,0,0,0,2.29-5.83,6.73,6.73,0,0,0-2.45-5.61q-2.45-1.94-7.17-2h-2.6V58.07ZM449.45,75.63H429.59V74.4l11.33-13.07a34.22,34.22,0,0,0,4.14-5.79,10,10,0,0,0,1.36-4.65,7.45,7.45,0,0,0-2.12-5.67,9.31,9.31,0,0,0-10.22-.9,7.92,7.92,0,0,0-3,3.09A9,9,0,0,0,430,51.8h-1.23A10.25,10.25,0,0,1,430,46.85a9.12,9.12,0,0,1,3.42-3.58,9.42,9.42,0,0,1,4.9-1.3,9.58,9.58,0,0,1,6.89,2.35,8.64,8.64,0,0,1,2.46,6.57q0,3.88-4.36,9.28l-2.08,2.53-10,11.7h18.24v1.23Zm-34.29,0h-1.23V44l-9.53,3.58V46.21l10.51-3.88h0.25v33.3Zm-28.3-1.23h17.56v1.23H385.2v-1l16.22-22.42H385.91V51h17.17V52ZM372,73.71l0.16-.46L380.68,51H382l-11,29-0.55,1.37q-1.78,4.31-5.88,4.31a4.54,4.54,0,0,1-1.82-.25l0-1.16a6.16,6.16,0,0,0,1.66.21,4.68,4.68,0,0,0,3.22-1.13,9,9,0,0,0,2.21-3.68l1.51-4.08L361.5,51h1.35ZM349,61.9L356.84,51h1.55l-8.67,12,9.12,12.66h-1.53L348.95,64,340.6,75.63h-1.53L348.2,63l-8.67-12h1.55Zm-38.55,6.59,1.35,5.31L319,51h1.25l7.18,22.85,1.39-5.31,5-17.54h1.44L328.1,75.63h-1.23l-6.09-18.54-1.16-4.42-1.25,4.42-6,18.54h-1.23L304,51h1.41Zm-19.87,5.18L299.42,51h1.32l-9.6,24.68h-1.21L280.35,51h1.32Zm-16.68,2v-4a8.05,8.05,0,0,1-3.19,3.25,10.61,10.61,0,0,1-5.31,1.2q-4,0-6.05-2.36t-2.06-6.88V51h1.23V66.89a9.06,9.06,0,0,0,1.78,5.94,6.31,6.31,0,0,0,5.06,2,9.31,9.31,0,0,0,5.75-1.66,7.54,7.54,0,0,0,2.81-4.88V51h1.25V75.63h-1.25ZM244.92,44.29V51h5.61v1.25h-5.61V69.72a7,7,0,0,0,.86,3.88,3.21,3.21,0,0,0,2.86,1.25,17.7,17.7,0,0,0,2.44-.21l0.21,1.16a8.42,8.42,0,0,1-2.58.27,4.59,4.59,0,0,1-3.85-1.49,7.77,7.77,0,0,1-1.19-4.71V52.21H239.1V51h4.56V44.29h1.25ZM233.73,69.59q0-4.49-7.66-6.11-4.61-1-6.41-2.52a5.27,5.27,0,0,1-1.8-4.23,5.4,5.4,0,0,1,2.29-4.47,9.54,9.54,0,0,1,6-1.76,10.06,10.06,0,0,1,6.41,1.9,6.2,6.2,0,0,1,2.42,5.14h-1.25a5.1,5.1,0,0,0-2.1-4.15,8.54,8.54,0,0,0-5.47-1.66A8.39,8.39,0,0,0,221,53.14a4.56,4.56,0,0,0-1.19,6.15A6.1,6.1,0,0,0,222.1,61a23.67,23.67,0,0,0,4.65,1.47,19.86,19.86,0,0,1,4.83,1.66,6.53,6.53,0,0,1,2.58,2.27,6.05,6.05,0,0,1,.8,3.2,5.57,5.57,0,0,1-2.39,4.7,10.26,10.26,0,0,1-6.27,1.78,11,11,0,0,1-6.69-1.88,5.78,5.78,0,0,1-2.54-4.85h1.23a5.1,5.1,0,0,0,2.29,4,10,10,0,0,0,5.71,1.45,8.75,8.75,0,0,0,5.37-1.54A4.54,4.54,0,0,0,233.73,69.59ZM213.38,51.84l-1.6-.14a7.3,7.3,0,0,0-5.27,2,10.18,10.18,0,0,0-2.78,5.71V75.63H202.5V51h1.23v5.13a9.08,9.08,0,0,1,3-4.08,8.17,8.17,0,0,1,5-1.51,5,5,0,0,1,1.73.25Zm-36.7,11.68q0,5.25,2.08,8.29a6.71,6.71,0,0,0,5.88,3,9.64,9.64,0,0,0,5.22-1.36,8.07,8.07,0,0,0,3.22-4V58a9.33,9.33,0,0,0-3.24-4.65,8.53,8.53,0,0,0-5.15-1.57,6.81,6.81,0,0,0-5.9,3Q176.68,57.7,176.68,63.52ZM175.4,63q0-5.91,2.49-9.23a8.06,8.06,0,0,1,6.82-3.32,9.65,9.65,0,0,1,4.93,1.25,9,9,0,0,1,3.44,3.6V51h1.23V85.12h-1.23V71.8a8.82,8.82,0,0,1-3.5,3.18,10.7,10.7,0,0,1-4.91,1.11,8,8,0,0,1-6.77-3.4q-2.49-3.4-2.49-9.33V63Zm-7.22,0q0-5.31-2.11-8.31a6.82,6.82,0,0,0-5.92-3,8.59,8.59,0,0,0-5.27,1.61A8.91,8.91,0,0,0,151.77,58V69.49a7.83,7.83,0,0,0,3.14,4,9.59,9.59,0,0,0,5.3,1.4,6.76,6.76,0,0,0,5.88-3Q168.19,68.83,168.19,63Zm1.25,0.48q0,5.77-2.49,9.17a8,8,0,0,1-6.77,3.4,10.65,10.65,0,0,1-5-1.14,8.56,8.56,0,0,1-3.42-3.15V85.12h-1.23V51h1.23v4.4a9,9,0,0,1,3.44-3.6,9.65,9.65,0,0,1,4.93-1.25A8.06,8.06,0,0,1,167,53.81q2.49,3.32,2.49,9.32v0.39Zm-45.6.25a13,13,0,0,0,1.22,5.64,9.61,9.61,0,0,0,3.4,4,8.84,8.84,0,0,0,5,1.44,8.55,8.55,0,0,0,6.88-3.17A12.28,12.28,0,0,0,143,63.52V62.81a12.84,12.84,0,0,0-1.23-5.61,9.76,9.76,0,0,0-3.41-4,8.71,8.71,0,0,0-4.94-1.45,8.54,8.54,0,0,0-6.89,3.22,12.25,12.25,0,0,0-2.67,8.1v0.73Zm-1.23-1A14.45,14.45,0,0,1,124,56.46a10.44,10.44,0,0,1,3.83-4.39,10.21,10.21,0,0,1,5.6-1.57,10.15,10.15,0,0,1,9.41,5.86,14.34,14.34,0,0,1,1.4,6.32v1.09a14.53,14.53,0,0,1-1.35,6.36A10.37,10.37,0,0,1,139,74.51a10.21,10.21,0,0,1-5.6,1.57,10.21,10.21,0,0,1-9.44-5.9,14.31,14.31,0,0,1-1.39-6.28V62.81ZM99.75,56.7a10.32,10.32,0,0,1,3.56-4.54,8.79,8.79,0,0,1,5.2-1.66q4,0,5.9,2.25t1.95,6.78v16.1h-1.23V59.48q0-4-1.62-5.87t-5.06-1.9A7.67,7.67,0,0,0,102.91,54a11.52,11.52,0,0,0-3.16,5.85v15.8H98.52V51h1.23V56.7ZM73.9,75.63H72.67V59q0-3.72-1.63-5.53t-5.12-1.81a7.85,7.85,0,0,0-6.64,3.58,12,12,0,0,0-2,4.74v15.6H56V51h1.25v5.84a10.43,10.43,0,0,1,3.58-4.65,9.45,9.45,0,0,1,10.23-.27,6.75,6.75,0,0,1,2.59,4.47,9,9,0,0,1,3.56-4.25,10,10,0,0,1,5.52-1.59q4,0,5.94,2.26t2,6.77v16.1H89.41v-16q0-4.06-1.63-6t-5.12-1.9a8.59,8.59,0,0,0-7.12,3.58,7.59,7.59,0,0,0-1.64,3.92V75.63Zm-26.14,0H46.53v-35h1.23v35ZM28.59,62.29l0,0L25,65.41V75.63H23.74v-35H25V64.07l2.9-2.74L39.08,51h1.76L29.51,61.47l12,14.16H40ZM13,43.24a1.25,1.25,0,0,1,.36-0.9A1.19,1.19,0,0,1,14.24,42a1.28,1.28,0,0,1,1.28,1.28,1.19,1.19,0,0,1-.38.89,1.25,1.25,0,0,1-.9.36A1.25,1.25,0,0,1,13,43.24ZM14.74,51V78.57A7.3,7.3,0,0,1,13,83.79a6.29,6.29,0,0,1-4.79,1.8A5.87,5.87,0,0,1,6,85.14L6.08,84a6.14,6.14,0,0,0,2.17.41,5,5,0,0,0,3.91-1.52,6.2,6.2,0,0,0,1.36-4.28V51h1.23ZM2.83,43.24a1.25,1.25,0,0,1,.36-0.9A1.19,1.19,0,0,1,4.08,42a1.28,1.28,0,0,1,1.28,1.28,1.19,1.19,0,0,1-.38.89,1.25,1.25,0,0,1-.9.36A1.25,1.25,0,0,1,2.83,43.24ZM4.7,75.63H3.47V51H4.7V75.63ZM934.34,14.78a10.32,10.32,0,0,1,3.56-4.54,8.79,8.79,0,0,1,5.2-1.66q4,0,5.9,2.25t1.95,6.78v16.1h-1.23V17.57q0-4-1.62-5.87T943,9.79a7.67,7.67,0,0,0-5.53,2.27,11.52,11.52,0,0,0-3.16,5.85v15.8h-1.23v-35h1.23v16.1ZM907.19,21.6q0,5.29,2.1,8.31a6.76,6.76,0,0,0,5.88,3,9.42,9.42,0,0,0,5.31-1.45,7.8,7.8,0,0,0,3.1-4.07V16.22q-2-6.41-8.37-6.41a6.83,6.83,0,0,0-5.92,3Q907.19,15.79,907.19,21.6Zm-1.25-.48q0-5.91,2.49-9.23a8.06,8.06,0,0,1,6.82-3.32,9.46,9.46,0,0,1,4.9,1.27,9.2,9.2,0,0,1,3.44,3.71V9h1.25V33.28q0,4.88-2.51,7.63a8.78,8.78,0,0,1-6.82,2.75A9.72,9.72,0,0,1,911,42.58a10.07,10.07,0,0,1-3.52-3.08l0.87-.82a10.87,10.87,0,0,0,3.15,2.79,8,8,0,0,0,4,1,7.64,7.64,0,0,0,5.93-2.31,9.57,9.57,0,0,0,2.19-6.53V29.81A8.62,8.62,0,0,1,920.13,33a10.57,10.57,0,0,1-4.94,1.13,8,8,0,0,1-6.77-3.4q-2.49-3.4-2.49-9.33V21.12ZM893.86,33.71V10.29h-4.29V9h4.29V5.43A7.8,7.8,0,0,1,895.58.11a6,6,0,0,1,4.73-1.9,9.77,9.77,0,0,1,2.92.39L903.05-.22a9.81,9.81,0,0,0-2.71-.34A4.87,4.87,0,0,0,896.5,1a6.58,6.58,0,0,0-1.4,4.5V9h6.52v1.25h-6.52V33.71h-1.23ZM876.47,9.81a8.06,8.06,0,0,0-6.11,2.68,11.41,11.41,0,0,0-2.94,6.83h17.2V19a10.42,10.42,0,0,0-1.06-4.66A8.18,8.18,0,0,0,880.64,11,7.52,7.52,0,0,0,876.47,9.81Zm0.46,24.36a9.93,9.93,0,0,1-5.49-1.61,11,11,0,0,1-3.91-4.41,13.64,13.64,0,0,1-1.41-6.23v-1a14.31,14.31,0,0,1,1.37-6.27,10.84,10.84,0,0,1,3.76-4.45,9.23,9.23,0,0,1,5.22-1.6,8.63,8.63,0,0,1,6.75,2.94,11.18,11.18,0,0,1,2.62,7.73v1.3h-18.5V21.9a12.43,12.43,0,0,0,1.27,5.58,10,10,0,0,0,3.49,4A8.62,8.62,0,0,0,876.93,33a9.77,9.77,0,0,0,4.23-.83,8.62,8.62,0,0,0,3.09-2.57l0.87,0.62A9.3,9.3,0,0,1,876.93,34.17ZM842.23,21.6q0,5.25,2.08,8.29a6.71,6.71,0,0,0,5.88,3,9.64,9.64,0,0,0,5.22-1.36,8.07,8.07,0,0,0,3.22-4V16q-2.12-6.23-8.39-6.23a6.81,6.81,0,0,0-5.9,3Q842.23,15.79,842.23,21.6ZM841,21.12q0-5.91,2.49-9.23a8.05,8.05,0,0,1,6.82-3.32,9.51,9.51,0,0,1,4.91,1.25,9.23,9.23,0,0,1,3.46,3.74V-1.32h1.23v35h-1.23V29.77A8.59,8.59,0,0,1,855.19,33a10.52,10.52,0,0,1-5,1.15,8,8,0,0,1-6.77-3.4Q841,27.37,841,21.44V21.12ZM826.38,32.94a8.46,8.46,0,0,0,5.53-1.78,6.6,6.6,0,0,0,2.38-4.93h1.23A7.72,7.72,0,0,1,832.76,32a9.55,9.55,0,0,1-6.39,2.18A9,9,0,0,1,819,30.82q-2.73-3.35-2.73-9.1V20.9q0-5.61,2.73-9a8.93,8.93,0,0,1,7.31-3.35,9.2,9.2,0,0,1,6.48,2.35,8.59,8.59,0,0,1,2.71,6.25h-1.23A7.46,7.46,0,0,0,832,11.83a7.94,7.94,0,0,0-5.62-2,7.77,7.77,0,0,0-6.47,3q-2.34,3-2.34,8.27v0.8q0,5.18,2.36,8.13A7.85,7.85,0,0,0,826.38,32.94ZM809.63,21.12q0-5.31-2.11-8.31a6.8,6.8,0,0,0-5.9-3,8.59,8.59,0,0,0-5.26,1.6,9,9,0,0,0-3.14,4.74V27.46a8.1,8.1,0,0,0,3.14,4,9.4,9.4,0,0,0,5.3,1.43,6.71,6.71,0,0,0,5.88-3Q809.63,26.87,809.63,21.12Zm1.28,0.48q0,5.77-2.49,9.17a8,8,0,0,1-6.77,3.4,10.52,10.52,0,0,1-5-1.15,8.7,8.7,0,0,1-3.44-3.2v3.9H792v-35h1.23V13.53a9.15,9.15,0,0,1,3.43-3.69,9.56,9.56,0,0,1,4.94-1.25,8.06,8.06,0,0,1,6.82,3.32q2.49,3.32,2.49,9.32V21.6ZM772.76,33a11.08,11.08,0,0,0,6-1.55,9.6,9.6,0,0,0,3.75-4.36V21.19h-5.7q-5.29,0-8.1,2.1a5.15,5.15,0,0,0-2.28,4.26,4.9,4.9,0,0,0,1.8,3.83A6.68,6.68,0,0,0,772.76,33Zm10.17,0.75a17.12,17.12,0,0,1-.46-4.52,9.9,9.9,0,0,1-4,3.67,12.35,12.35,0,0,1-5.72,1.3,8,8,0,0,1-5.51-1.86,6.18,6.18,0,0,1-2.09-4.85A6.25,6.25,0,0,1,768.24,22a14.75,14.75,0,0,1,8.15-2.09h6.09v-3.6a6.06,6.06,0,0,0-1.95-4.81A8.2,8.2,0,0,0,775,9.81a9,9,0,0,0-5.63,1.73,5.22,5.22,0,0,0-2.26,4.29l-1.23,0a6.32,6.32,0,0,1,2.64-5.11A10.1,10.1,0,0,1,775,8.58a9.47,9.47,0,0,1,6.34,2,7.16,7.16,0,0,1,2.42,5.62V28a15.82,15.82,0,0,0,.64,5.52v0.21h-1.41Zm-38.56-1.23h21.94v1.23H742.69v-1l21.19-31H743.6V0.51h22V1.37ZM726.15,20L737.78,0.51h1.51L726.76,21.1V33.71h-1.23V21.1L713,0.51h1.64ZM697.9,15.81l10.72-15.3h1.55L698.68,16.77l11.93,16.94h-1.53l-11.17-16-11.22,16H685.2l11.93-16.94L685.63,0.51h1.55ZM652.42,31.66l1.51-5.47,7.84-25.68h1.37l7.8,25.68,1.48,5.47L674,26.19l6.84-25.68h1.35l-8.94,33.21h-1.39L663.6,6l-1.16-3.51L661.31,6,653,33.71h-1.39l-9-33.21H644l6.89,25.68Zm-26.14-1.19,0.66,2,0.66-2,11.15-30h1.35L627.69,33.71h-1.5L613.78,0.51h1.35Zm-17.91-30V23q0,5.27-3.06,8.22a13.08,13.08,0,0,1-16.56,0,10.85,10.85,0,0,1-3.08-8.13V0.51h1.23V22.95a9.7,9.7,0,0,0,2.77,7.3,11.38,11.38,0,0,0,14.7,0,9.75,9.75,0,0,0,2.76-7.32V0.51h1.23ZM580.71,1.74H568.63v32H567.4v-32H555.31V0.51h25.41V1.74Zm-29.31,24a6.28,6.28,0,0,0-1-3.59,8.4,8.4,0,0,0-3.12-2.6,33.63,33.63,0,0,0-6.44-2.31,30.32,30.32,0,0,1-6.47-2.39A8.55,8.55,0,0,1,531.22,12a7.14,7.14,0,0,1-1-3.88,7,7,0,0,1,3.06-5.87,13.11,13.11,0,0,1,8-2.25A12.89,12.89,0,0,1,547,1.29a9.31,9.31,0,0,1,3.93,3.49,9.44,9.44,0,0,1,1.39,5.07h-1.23a7.86,7.86,0,0,0-2.74-6.15,10.29,10.29,0,0,0-7.09-2.43,11.83,11.83,0,0,0-7.08,1.95,5.84,5.84,0,0,0-2.7,4.89,5.8,5.8,0,0,0,2.35,4.81q2.35,1.82,7.75,3.23a23.88,23.88,0,0,1,7.91,3.25,7.42,7.42,0,0,1,3.19,6.29,7.3,7.3,0,0,1-1.41,4.44,9,9,0,0,1-4,3,15.48,15.48,0,0,1-5.84,1,16.7,16.7,0,0,1-6.48-1.2,9.21,9.21,0,0,1-4.32-3.41,9.32,9.32,0,0,1-1.45-5.22h1.23a7.43,7.43,0,0,0,3.06,6.34,13.06,13.06,0,0,0,8,2.26,12.17,12.17,0,0,0,7.18-2A6.09,6.09,0,0,0,551.4,25.75Zm-49.73-7.48h10.47a8.44,8.44,0,0,0,6.19-2.33,7.89,7.89,0,0,0,2.36-5.86A7.62,7.62,0,0,0,518.08,4a10.64,10.64,0,0,0-7.15-2.23h-9.26V18.27Zm11.52,1.23H501.67V33.71h-1.23V0.51H511A11.66,11.66,0,0,1,519,3.08a8.81,8.81,0,0,1,3,7A9,9,0,0,1,519.82,16a8.93,8.93,0,0,1-5.37,3.16l8.87,14.21v0.32H522Zm-21.86-4.93q0-6-3.06-9.66a11.13,11.13,0,0,0-16.44,0q-3.06,3.61-3.06,9.84V19.6a16.83,16.83,0,0,0,1.38,7,10.61,10.61,0,0,0,3.93,4.69,10.81,10.81,0,0,0,6,1.64,10.17,10.17,0,0,0,8.23-3.63q3-3.63,3-9.9V14.58Zm1.23,5a17.56,17.56,0,0,1-1.81,8.16,11.56,11.56,0,0,1-5.19,5.2l6.09,6-0.89.8-6.48-6.23a13.25,13.25,0,0,1-4.22.68,11.45,11.45,0,0,1-9.08-4q-3.47-4-3.47-10.76V14.62A18,18,0,0,1,469.06,7a11.75,11.75,0,0,1,4.4-5.14,12.8,12.8,0,0,1,13.14,0A11.81,11.81,0,0,1,491,7a17.87,17.87,0,0,1,1.55,7.61v5Zm-50.73-1.14H451a10.33,10.33,0,0,0,7-2.17,7.58,7.58,0,0,0,2.5-6A8,8,0,0,0,458,4a10.09,10.09,0,0,0-7-2.25h-9.15V18.46Zm0,1.23v14h-1.23V0.51H451q5.09,0,7.9,2.57a9.15,9.15,0,0,1,2.82,7.13,8.89,8.89,0,0,1-2.75,7q-2.75,2.46-7.81,2.51h-9.3Zm-10.45-5.11q0-6-3.06-9.66a11.13,11.13,0,0,0-16.44,0q-3.06,3.61-3.06,9.84V19.6a16.83,16.83,0,0,0,1.38,7,10.61,10.61,0,0,0,3.93,4.69,10.81,10.81,0,0,0,6,1.64,10.17,10.17,0,0,0,8.23-3.63q3-3.63,3-9.9V14.58Zm1.23,5a17.94,17.94,0,0,1-1.54,7.63,11.79,11.79,0,0,1-4.39,5.13,12,12,0,0,1-6.57,1.81,11.45,11.45,0,0,1-9.08-4q-3.47-4-3.47-10.76V14.62A18,18,0,0,1,409.11,7a11.75,11.75,0,0,1,4.4-5.14,12.8,12.8,0,0,1,13.14,0A11.81,11.81,0,0,1,431.06,7a17.87,17.87,0,0,1,1.55,7.61v5Zm-33,14.12h-1.23L376.91,2.61V33.71h-1.25V0.51h1.25l21.44,31v-31h1.23V33.71ZM337,0.51l13.66,31.4,13.71-31.4h1.8V33.71h-1.23V2.33L351.13,33.71h-1L336.45,2.49V33.71h-1.23V0.51H337Zm-25,32h17v1.23H310.71V0.51H312v32ZM287.21,16.24l-5.31,4.9V33.71h-1.23V0.51h1.23v19.2l5.47-5.36L301.15,0.51h1.78L288.13,15.4l15.94,18.31h-1.6ZM270,0.51h1.23V23.63a10.92,10.92,0,0,1-2.62,7.67,9,9,0,0,1-7,2.86q-4.65,0-7.12-2.49t-2.46-7.12h1.23a8.58,8.58,0,0,0,2.09,6.21q2.09,2.16,6.26,2.16a7.85,7.85,0,0,0,6-2.44A9.49,9.49,0,0,0,270,23.86V0.51ZM244.19,33.71H243V0.51h1.23V33.71Zm-11.66,0h-1.23V17.25H210.08V33.71h-1.23V0.51h1.23V16h21.21V0.51h1.23V33.71Zm-32.74-3.56a9.09,9.09,0,0,1-4.4,2.87,20.22,20.22,0,0,1-6.93,1.14,12,12,0,0,1-11.12-6.89,16.92,16.92,0,0,1-1.68-7.43v-5.7a16.54,16.54,0,0,1,1.57-7.32,11.79,11.79,0,0,1,4.42-5A11.91,11.91,0,0,1,188.06.05a12.37,12.37,0,0,1,8.06,2.53,10,10,0,0,1,3.61,6.91h-1.23A9.19,9.19,0,0,0,195.2,3.4a11.21,11.21,0,0,0-7.14-2.12A10.16,10.16,0,0,0,180,4.86a13.94,13.94,0,0,0-3.08,9.42v5.29a16.05,16.05,0,0,0,1.45,7,10.79,10.79,0,0,0,10.11,6.41,18.88,18.88,0,0,0,6.18-1,8.26,8.26,0,0,0,3.92-2.37V19.91H188.41V18.66h11.38V30.15ZM167.51,17.38h-17V33.71h-1.23V0.51h20.57V1.74H150.49V16.11h17v1.28Zm-27.35-.14H123.51V32.48h19v1.23H122.27V0.51h20.21V1.74h-19V16h16.65v1.23ZM92.55,1.74V32.48h8a12.21,12.21,0,0,0,6.35-1.7A11.88,11.88,0,0,0,111.34,26,14.37,14.37,0,0,0,113,19.28V15a14.35,14.35,0,0,0-1.59-6.75A11.87,11.87,0,0,0,107,3.51a12.21,12.21,0,0,0-6.28-1.77H92.55Zm-1.23,32V0.51h9.19a13.58,13.58,0,0,1,7,1.82,12.88,12.88,0,0,1,4.9,5.12,15.66,15.66,0,0,1,1.82,7.38v4.31a15.87,15.87,0,0,1-1.74,7.48,12.91,12.91,0,0,1-4.87,5.2,13.49,13.49,0,0,1-7,1.89h-9.3ZM83.24,23.54a11.58,11.58,0,0,1-3.53,7.88q-3.06,2.75-8.3,2.75a11.14,11.14,0,0,1-6.26-1.79,11.74,11.74,0,0,1-4.23-5.09,18.2,18.2,0,0,1-1.53-7.54V14.62A18.51,18.51,0,0,1,60.86,7a11.72,11.72,0,0,1,4.23-5.17A11.14,11.14,0,0,1,71.4.05a12,12,0,0,1,8.28,2.74,11.46,11.46,0,0,1,3.56,7.85H82a10.56,10.56,0,0,0-3.19-7Q76.14,1.28,71.4,1.28a9.59,9.59,0,0,0-7.81,3.65q-3,3.65-3,9.78V19.6a17.17,17.17,0,0,0,1.32,6.94,10.76,10.76,0,0,0,3.8,4.71,9.82,9.82,0,0,0,5.67,1.69q4.77,0,7.45-2.35t3.16-7h1.23ZM33.33,16.08h8q4.54,0,6.84-1.74a6.36,6.36,0,0,0,2.3-5.42q0-7.07-9.33-7.18H33.33V16.08Zm0,1.23V32.48h9.6a9.78,9.78,0,0,0,6.63-2.09A7.25,7.25,0,0,0,52,24.61a6.6,6.6,0,0,0-2.33-5.19,9.36,9.36,0,0,0-6.23-2.11H33.33ZM32.1,33.71V0.51h8.73q5.36,0,8.11,2.18A7.59,7.59,0,0,1,51.69,9a7.94,7.94,0,0,1-1.53,5,6.89,6.89,0,0,1-4.31,2.53,8.31,8.31,0,0,1,5.25,2.73,7.67,7.67,0,0,1,2.1,5.3,8.51,8.51,0,0,1-2.75,6.69q-2.75,2.45-7.65,2.45H32.1ZM5.5,22.56H20.84L13.18,2Zm15.8,1.23H5L1.35,33.71H0L12.43,0.51h1.51L26.36,33.71H25Z" transform="translate(0 1.8)"/><path class="cls-2" d="M99,97.16a0.38,0.38,0,0,0-.21-0.34,2.44,2.44,0,0,0-.69-0.22q-1.58-.33-1.58-1.34a1.22,1.22,0,0,1,.49-1,2,2,0,0,1,1.28-.4,2.12,2.12,0,0,1,1.35.4,1.25,1.25,0,0,1,.51,1H98.94a0.57,0.57,0,0,0-.16-0.42,0.69,0.69,0,0,0-.51-0.17,0.71,0.71,0,0,0-.46.14,0.43,0.43,0,0,0-.16.34,0.36,0.36,0,0,0,.19.32,1.92,1.92,0,0,0,.63.21,5.13,5.13,0,0,1,.74.2,1.22,1.22,0,0,1,.94,1.19,1.16,1.16,0,0,1-.52,1,2.24,2.24,0,0,1-1.34.37,2.34,2.34,0,0,1-1-.2,1.66,1.66,0,0,1-.68-0.54A1.26,1.26,0,0,1,96.36,97h1.12a0.62,0.62,0,0,0,.23.48,0.93,0.93,0,0,0,.58.17,0.86,0.86,0,0,0,.51-0.13A0.4,0.4,0,0,0,99,97.16Zm-3.82-4.29V94h0.76v0.87H95.17V97a0.53,0.53,0,0,0,.09.35,0.47,0.47,0,0,0,.36.11,1.89,1.89,0,0,0,.35,0v0.9a2.44,2.44,0,0,1-.72.11A1.13,1.13,0,0,1,94,97.21V94.82H93.34V94H94V92.87h1.18Zm-5,1.57a1.48,1.48,0,0,1,1.18-.56q1.44,0,1.46,1.67v2.84H91.67v-2.8A0.82,0.82,0,0,0,91.51,95,0.7,0.7,0,0,0,91,94.83a0.81,0.81,0,0,0-.75.4v3.15H89V92.1h1.18v2.34Zm-4.93,1.78a1.61,1.61,0,0,0,.24.94,0.77,0.77,0,0,0,.66.34A0.82,0.82,0,0,0,87,97.1V95.24a0.82,0.82,0,0,0-.77-0.41,0.77,0.77,0,0,0-.67.35A1.82,1.82,0,0,0,85.28,96.22Zm-1.18-.09a2.6,2.6,0,0,1,.49-1.64,1.57,1.57,0,0,1,1.31-.62,1.38,1.38,0,0,1,1.13.5l0-.42h1.07v4.28a1.89,1.89,0,0,1-.26,1,1.7,1.7,0,0,1-.74.65,2.61,2.61,0,0,1-1.12.23,2.43,2.43,0,0,1-.95-0.19,1.69,1.69,0,0,1-.7-0.5l0.52-.72a1.39,1.39,0,0,0,1.07.5A1,1,0,0,0,86.7,99,0.94,0.94,0,0,0,87,98.24V98a1.37,1.37,0,0,1-1.08.46,1.57,1.57,0,0,1-1.29-.62,2.59,2.59,0,0,1-.49-1.66v0ZM82,92.81a0.58,0.58,0,0,1,.18-0.44,0.77,0.77,0,0,1,1,0,0.63,0.63,0,0,1,0,.88,0.76,0.76,0,0,1-1,0A0.58,0.58,0,0,1,82,92.81Zm1.26,5.58H82.11V94H83.3v4.43Zm-3.88-3.55a0.74,0.74,0,0,0-.57.24,1.23,1.23,0,0,0-.28.68h1.65V95.65A0.87,0.87,0,0,0,80,95,0.76,0.76,0,0,0,79.42,94.83Zm0.14,3.63a2.17,2.17,0,0,1-1.59-.6,2.12,2.12,0,0,1-.61-1.59V96.16A2.68,2.68,0,0,1,77.62,95a1.89,1.89,0,0,1,.73-0.81,2.05,2.05,0,0,1,1.08-.28,1.84,1.84,0,0,1,1.43.57,2.33,2.33,0,0,1,.52,1.63v0.48H78.56a1.1,1.1,0,0,0,.35.7,1,1,0,0,0,.73.26A1.28,1.28,0,0,0,80.7,97l0.58,0.65a1.78,1.78,0,0,1-.72.59A2.36,2.36,0,0,1,79.56,98.46Zm-4.35-1.69L75.79,94h1.14L75.8,98.38h-1L74,95.6l-0.84,2.79h-1L71,94h1.14l0.58,2.82L73.55,94H74.4Zm-7.85.38a0.38,0.38,0,0,0-.21-0.34,2.44,2.44,0,0,0-.69-0.22q-1.58-.33-1.58-1.34a1.22,1.22,0,0,1,.49-1,2,2,0,0,1,1.28-.4,2.12,2.12,0,0,1,1.35.4,1.25,1.25,0,0,1,.51,1H67.31a0.57,0.57,0,0,0-.16-0.42,0.69,0.69,0,0,0-.51-0.17,0.71,0.71,0,0,0-.46.14,0.43,0.43,0,0,0-.16.34,0.36,0.36,0,0,0,.19.32,1.92,1.92,0,0,0,.63.21,5.13,5.13,0,0,1,.74.2,1.22,1.22,0,0,1,.94,1.19,1.16,1.16,0,0,1-.52,1,2.24,2.24,0,0,1-1.34.37,2.34,2.34,0,0,1-1-.2A1.66,1.66,0,0,1,65,97.72,1.26,1.26,0,0,1,64.74,97h1.12a0.62,0.62,0,0,0,.23.48,0.93,0.93,0,0,0,.58.17,0.86,0.86,0,0,0,.51-0.13A0.4,0.4,0,0,0,67.36,97.16Zm-4.44.77a1.48,1.48,0,0,1-1.21.53,1.4,1.4,0,0,1-1.09-.41,1.75,1.75,0,0,1-.38-1.2V94h1.18v2.86a0.59,0.59,0,0,0,.63.69,0.85,0.85,0,0,0,.83-0.42V94h1.19v4.43H63Zm-6.39-1.72a1.65,1.65,0,0,0,.24,1,0.85,0.85,0,0,0,1.35,0,1.81,1.81,0,0,0,.24-1.05,1.63,1.63,0,0,0-.24-1,0.79,0.79,0,0,0-.68-0.34,0.77,0.77,0,0,0-.67.34A1.84,1.84,0,0,0,56.53,96.21Zm-1.18-.09A2.63,2.63,0,0,1,55.6,95a1.86,1.86,0,0,1,.73-0.8,2.13,2.13,0,0,1,1.11-.28,2,2,0,0,1,1.46.55,2.2,2.2,0,0,1,.63,1.49v0.3A2.31,2.31,0,0,1,59,97.85a2.21,2.21,0,0,1-3.06,0,2.36,2.36,0,0,1-.57-1.67V96.13Zm-2-3.32a0.58,0.58,0,0,1,.18-0.44,0.77,0.77,0,0,1,1,0,0.63,0.63,0,0,1,0,.88,0.76,0.76,0,0,1-1,0A0.58,0.58,0,0,1,53.3,92.81Zm1.26,5.58H53.37V94h1.19v4.43Zm-1.82-3.32-0.43,0a0.87,0.87,0,0,0-.88.45v2.9H50.25V94h1.12l0,0.53a1.1,1.1,0,0,1,1-.61,1.24,1.24,0,0,1,.37.05Zm-5.4,2.5a1,1,0,0,0,.48-0.12,0.77,0.77,0,0,0,.33-0.31V96.37H47.71a0.77,0.77,0,0,0-.95.61v0.07a0.47,0.47,0,0,0,.16.36A0.6,0.6,0,0,0,47.34,97.56Zm1,0.82A1.31,1.31,0,0,1,48.2,98a1.43,1.43,0,0,1-1.12.48A1.57,1.57,0,0,1,46,98.09a1.21,1.21,0,0,1-.43-0.95,1.25,1.25,0,0,1,.52-1.08,2.58,2.58,0,0,1,1.51-.38h0.54V95.42A0.73,0.73,0,0,0,48,94.93a0.62,0.62,0,0,0-.5-0.18,0.7,0.7,0,0,0-.47.14,0.49,0.49,0,0,0-.17.39H45.68a1.19,1.19,0,0,1,.24-0.71,1.57,1.57,0,0,1,.67-0.51,2.45,2.45,0,0,1,1-.19,1.93,1.93,0,0,1,1.3.41,1.44,1.44,0,0,1,.48,1.16v1.92a2.12,2.12,0,0,0,.18,1v0.07h-1.2Zm-5.15-1.44L44,94h1.24l-1.49,4.43H42.61L41.12,94h1.24Zm-7.35-3,0,0.51a1.55,1.55,0,0,1,1.27-.59,1.29,1.29,0,0,1,1,.41,1.93,1.93,0,0,1,.35,1.24v2.86H37.35V95.55A0.77,0.77,0,0,0,37.19,95a0.73,0.73,0,0,0-.54-0.17,0.81,0.81,0,0,0-.75.43v3.12H34.71V94h1.11ZM32.5,92.81a0.58,0.58,0,0,1,.18-0.44,0.77,0.77,0,0,1,1,0,0.63,0.63,0,0,1,0,.88,0.76,0.76,0,0,1-1,0A0.58,0.58,0,0,1,32.5,92.81Zm1.26,5.58H32.57V94h1.19v4.43Zm-7.08-2.17a1.65,1.65,0,0,0,.24,1,0.85,0.85,0,0,0,1.35,0,1.81,1.81,0,0,0,.24-1.05,1.63,1.63,0,0,0-.24-1,0.79,0.79,0,0,0-.68-0.34,0.77,0.77,0,0,0-.67.34A1.84,1.84,0,0,0,26.68,96.21Zm-1.18-.09A2.63,2.63,0,0,1,25.75,95a1.86,1.86,0,0,1,.73-0.8,2.13,2.13,0,0,1,1.11-.28,2,2,0,0,1,1.46.55,2.2,2.2,0,0,1,.63,1.49v0.3a2.31,2.31,0,0,1-.57,1.64,2.21,2.21,0,0,1-3.06,0,2.36,2.36,0,0,1-.57-1.67V96.13Zm-1.23-3.26V94H25v0.87H24.27V97a0.53,0.53,0,0,0,.09.35,0.47,0.47,0,0,0,.36.11,1.89,1.89,0,0,0,.35,0v0.9a2.44,2.44,0,0,1-.72.11,1.13,1.13,0,0,1-1.27-1.26V94.82H22.44V94h0.65V92.87h1.18Zm-5.16,3.35a1.65,1.65,0,0,0,.24,1,0.85,0.85,0,0,0,1.35,0,1.81,1.81,0,0,0,.24-1.05,1.63,1.63,0,0,0-.24-1A0.79,0.79,0,0,0,20,94.83a0.77,0.77,0,0,0-.67.34A1.84,1.84,0,0,0,19.11,96.21Zm-1.18-.09A2.63,2.63,0,0,1,18.18,95a1.86,1.86,0,0,1,.73-0.8A2.13,2.13,0,0,1,20,93.87a2,2,0,0,1,1.46.55,2.2,2.2,0,0,1,.63,1.49v0.3a2.31,2.31,0,0,1-.57,1.64,2.21,2.21,0,0,1-3.06,0,2.36,2.36,0,0,1-.57-1.67V96.13Zm-1.73,0a1.76,1.76,0,0,0-.21-1,0.72,0.72,0,0,0-.63-0.31,0.78,0.78,0,0,0-.78.46V97a0.79,0.79,0,0,0,.79.47,0.73,0.73,0,0,0,.75-0.56A2.91,2.91,0,0,0,16.2,96.12Zm1.18,0.09a2.68,2.68,0,0,1-.45,1.66,1.51,1.51,0,0,1-1.27.6,1.38,1.38,0,0,1-1.15-.55l-0.05.47H13.39V92.1h1.18v2.26a1.35,1.35,0,0,1,1.08-.48,1.52,1.52,0,0,1,1.27.6,2.69,2.69,0,0,1,.46,1.68v0.07Zm-7.73,0a1.65,1.65,0,0,0,.24,1,0.85,0.85,0,0,0,1.35,0,1.81,1.81,0,0,0,.24-1.05,1.63,1.63,0,0,0-.24-1,0.79,0.79,0,0,0-.68-0.34,0.77,0.77,0,0,0-.67.34A1.84,1.84,0,0,0,9.65,96.21Zm-1.18-.09A2.63,2.63,0,0,1,8.72,95a1.86,1.86,0,0,1,.73-0.8,2.13,2.13,0,0,1,1.11-.28,2,2,0,0,1,1.46.55,2.2,2.2,0,0,1,.63,1.49v0.3a2.31,2.31,0,0,1-.57,1.64,2,2,0,0,1-1.53.62A2,2,0,0,1,9,97.85a2.36,2.36,0,0,1-.57-1.67V96.13Zm-3.86-.92h1A1,1,0,0,0,6.31,95a0.84,0.84,0,0,0,.25-0.65,0.9,0.9,0,0,0-.24-0.66,1,1,0,0,0-.73-0.24h-1v1.79Zm1,1h-1v2.18H3.38v-6H5.59a2.5,2.5,0,0,1,1.63.47,1.62,1.62,0,0,1,.57,1.33,1.83,1.83,0,0,1-.26,1,1.8,1.8,0,0,1-.8.65L8,98.33v0.06H6.7Z" transform="translate(0 1.8)"/><rect class="cls-3" y="1.8" width="626.95" height="100"/></svg>