<svg id="Layer_1" data-name="Layer 1" xmlns="http://www.w3.org/2000/svg" xmlns:xlink="http://www.w3.org/1999/xlink" viewBox="0 0 748.91 950.51"><defs><style>.cls-1,.cls-10,.cls-2,.cls-6{fill:none;}.cls-2{clip-rule:evenodd;}.cls-3{isolation:isolate;}.cls-4{clip-path:url(#clip-path);}.cls-5{clip-path:url(#clip-path-2);}.cls-10,.cls-6{stroke:#0027ff;stroke-miterlimit:10;}.cls-6{stroke-width:2px;}.cls-7{clip-path:url(#clip-path-4);}.cls-8{fill:#0027ff;}.cls-9{clip-path:url(#clip-path-6);}.cls-10{stroke-linecap:square;}.cls-11{clip-path:url(#clip-path-9);}.cls-12{clip-path:url(#clip-path-11);}.cls-13{clip-path:url(#clip-path-13);}.cls-14{clip-path:url(#clip-path-15);}.cls-15{clip-path:url(#clip-path-17);}.cls-16{fill:#fff;}.cls-17{clip-path:url(#clip-path-19);}.cls-18{clip-path:url(#clip-path-21);}.cls-19{clip-path:url(#clip-path-23);}.cls-20{clip-path:url(#clip-path-25);}.cls-21{clip-path:url(#clip-path-27);}.cls-22{clip-path:url(#clip-path-29);}.cls-23{clip-path:url(#clip-path-31);}.cls-24{clip-path:url(#clip-path-33);}.cls-25{clip-path:url(#clip-path-36);}.cls-26{clip-path:url(#clip-path-38);}.cls-27{clip-path:url(#clip-path-40);}.cls-28{clip-path:url(#clip-path-43);}.cls-29{clip-path:url(#clip-path-45);}.cls-30{clip-path:url(#clip-path-47);}.cls-31{clip-path:url(#clip-path-50);}.cls-32{clip-path:url(#clip-path-52);}.cls-33{clip-path:url(#clip-path-53);}.cls-34{clip-path:url(#clip-path-54);}.cls-35{clip-path:url(#clip-path-56);}.cls-36{clip-path:url(#clip-path-59);}.cls-37{clip-path:url(#clip-path-62);}</style><clipPath id="clip-path" transform="translate(5 0.91)"><rect class="cls-1" width="739" height="800"/></clipPath><clipPath id="clip-path-2" transform="translate(5 0.91)"><rect class="cls-1" y="0.09" width="738.91" height="799.83"/></clipPath><clipPath id="clip-path-4" transform="translate(5 0.91)"><rect class="cls-1" x="15.19" y="14.19" width="72.7" height="72.71"/></clipPath><clipPath id="clip-path-6" transform="translate(5 0.91)"><rect class="cls-1" y="0.09" width="738.91" height="410.22"/></clipPath><clipPath id="clip-path-9" transform="translate(5 0.91)"><rect class="cls-1" x="640.18" y="27.22" width="24.96" height="24.96"/></clipPath><clipPath id="clip-path-11" transform="translate(5 0.91)"><rect class="cls-1" x="686.83" y="27.22" width="24.96" height="24.96"/></clipPath><clipPath id="clip-path-13" transform="translate(5 0.91)"><rect class="cls-1" y="409.92" width="738.91" height="32.56"/></clipPath><clipPath id="clip-path-15" transform="translate(5 0.91)"><polygon class="cls-2" points="218.09 441.78 227.86 441.78 222.98 447.21 218.09 441.78"/></clipPath><clipPath id="clip-path-17" transform="translate(5 0.91)"><rect class="cls-1" x="184.46" y="423.33" width="78.12" height="6.51"/></clipPath><clipPath id="clip-path-19" transform="translate(5 0.91)"><rect class="cls-1" x="281.03" y="423.33" width="78.12" height="6.51"/></clipPath><clipPath id="clip-path-21" transform="translate(5 0.91)"><rect class="cls-1" x="377.6" y="423.33" width="78.12" height="6.51"/></clipPath><clipPath id="clip-path-23" transform="translate(5 0.91)"><rect class="cls-1" x="474.16" y="423.33" width="78.12" height="6.51"/></clipPath><clipPath id="clip-path-25" transform="translate(5 0.91)"><rect class="cls-1" x="6.51" y="483.02" width="355.89" height="228.99"/></clipPath><clipPath id="clip-path-27" transform="translate(5 0.91)"><rect class="cls-1" x="22.79" y="657.75" width="310.32" height="17.36"/></clipPath><clipPath id="clip-path-29" transform="translate(5 0.91)"><rect class="cls-1" x="214.84" y="135.74" width="310.32" height="24.96"/></clipPath><clipPath id="clip-path-31" transform="translate(5 0.91)"><rect class="cls-1" x="236.54" y="180.24" width="266.92" height="24.96"/></clipPath><clipPath id="clip-path-33" transform="translate(5 0.91)"><rect class="cls-1" x="22.79" y="678.94" width="212.67" height="17.36"/></clipPath><clipPath id="clip-path-36" transform="translate(5 0.91)"><rect class="cls-1" x="368.92" y="483.02" width="174.69" height="228.99"/></clipPath><clipPath id="clip-path-38" transform="translate(5 0.91)"><rect class="cls-1" x="381.94" y="613.25" width="142.14" height="10.85"/></clipPath><clipPath id="clip-path-40" transform="translate(5 0.91)"><rect class="cls-1" x="381.94" y="627.36" width="64.02" height="10.85"/></clipPath><clipPath id="clip-path-43" transform="translate(5 0.91)"><rect class="cls-1" x="550.12" y="483.02" width="174.69" height="228.99"/></clipPath><clipPath id="clip-path-45" transform="translate(5 0.91)"><rect class="cls-1" x="563.14" y="613.25" width="142.14" height="10.85"/></clipPath><clipPath id="clip-path-47" transform="translate(5 0.91)"><rect class="cls-1" x="563.14" y="627.36" width="64.02" height="10.85"/></clipPath><clipPath id="clip-path-50" transform="translate(5 0.91)"><rect class="cls-1" y="691.39" width="738.91" height="108.53"/></clipPath><clipPath id="clip-path-52" transform="translate(5 0.91)"><rect class="cls-1" x="2" y="716" width="727" height="84"/></clipPath><clipPath id="clip-path-53" transform="translate(5 0.91)"><rect class="cls-1" x="368.92" y="719.61" width="174.69" height="228.99"/></clipPath><clipPath id="clip-path-54" transform="translate(5 0.91)"><rect class="cls-1" y="691" width="739" height="109"/></clipPath><clipPath id="clip-path-56" transform="translate(5 0.91)"><rect class="cls-1" x="6.51" y="719.61" width="174.69" height="228.99"/></clipPath><clipPath id="clip-path-59" transform="translate(5 0.91)"><rect class="cls-1" x="550.12" y="719.61" width="174.69" height="228.99"/></clipPath><clipPath id="clip-path-62" transform="translate(5 0.91)"><rect class="cls-1" x="187.71" y="719.61" width="174.69" height="228.99"/></clipPath></defs><title>Untitled-4</title><g class="cls-3"><g class="cls-4"><g class="cls-5"><g class="cls-4"><rect class="cls-6" x="5" y="1" width="738.91" height="799.83"/></g></g><g class="cls-7"><g class="cls-4"><rect class="cls-8" x="15.19" y="10.11" width="82.7" height="82.71"/></g></g><g class="cls-9"><g class="cls-4"><rect class="cls-6" x="5" y="1" width="738.91" height="410.22"/></g></g><g class="cls-4"><line class="cls-10" x1="5.54" y1="1.54" x2="743.37" y2="410.68"/><line class="cls-10" x1="743.37" y1="2.63" x2="5.54" y2="410.68"/></g><g class="cls-11"><g class="cls-4"><rect class="cls-8" x="640.18" y="23.13" width="34.96" height="34.96"/></g></g><g class="cls-12"><g class="cls-4"><rect class="cls-8" x="686.83" y="23.13" width="34.96" height="34.96"/></g></g><g class="cls-13"><g class="cls-4"><rect class="cls-8" y="405.84" width="748.91" height="42.56"/></g></g><g class="cls-14"><g class="cls-4"><rect class="cls-8" x="218.09" y="437.7" width="19.77" height="15.43"/></g></g><g class="cls-15"><g class="cls-4"><rect class="cls-16" x="184.46" y="419.25" width="88.12" height="16.51"/></g></g><g class="cls-17"><g class="cls-4"><rect class="cls-16" x="281.03" y="419.25" width="88.12" height="16.51"/></g></g><g class="cls-18"><g class="cls-4"><rect class="cls-16" x="377.6" y="419.25" width="88.12" height="16.51"/></g></g><g class="cls-19"><g class="cls-4"><rect class="cls-16" x="474.16" y="419.25" width="88.12" height="16.51"/></g></g><g class="cls-20"><g class="cls-4"><rect class="cls-6" x="11.51" y="483.94" width="355.89" height="228.99"/></g></g><g class="cls-21"><g class="cls-4"><rect class="cls-8" x="22.79" y="653.66" width="320.32" height="27.36"/></g></g><g class="cls-22"><g class="cls-4"><rect class="cls-8" x="214.84" y="131.66" width="320.32" height="34.96"/></g></g><g class="cls-23"><g class="cls-4"><rect class="cls-8" x="236.54" y="176.15" width="276.92" height="34.96"/></g></g><g class="cls-24"><g class="cls-4"><rect class="cls-8" x="22.79" y="674.86" width="222.67" height="27.36"/></g></g><g class="cls-4"><line class="cls-10" x1="13.14" y1="485.56" x2="365.78" y2="711.3"/><line class="cls-10" x1="365.78" y1="485.56" x2="13.14" y2="711.3"/></g><g class="cls-25"><g class="cls-4"><rect class="cls-6" x="373.92" y="483.94" width="174.69" height="228.99"/></g></g><g class="cls-26"><g class="cls-4"><rect class="cls-8" x="381.94" y="609.17" width="152.14" height="20.85"/></g></g><g class="cls-27"><g class="cls-4"><rect class="cls-8" x="381.94" y="623.27" width="74.02" height="20.85"/></g></g><g class="cls-4"><line class="cls-10" x1="374.46" y1="600.6" x2="547.06" y2="600.6"/><line class="cls-10" x1="375.54" y1="485.56" x2="546.98" y2="599.52"/><line class="cls-10" x1="547.19" y1="485.88" x2="375.33" y2="599.2"/></g><g class="cls-28"><g class="cls-4"><rect class="cls-6" x="555.12" y="483.94" width="174.69" height="228.99"/></g></g><g class="cls-29"><g class="cls-4"><rect class="cls-8" x="563.14" y="609.17" width="152.14" height="20.85"/></g></g><g class="cls-30"><g class="cls-4"><rect class="cls-8" x="563.14" y="623.27" width="74.02" height="20.85"/></g></g><g class="cls-4"><line class="cls-10" x1="555.66" y1="600.6" x2="728.27" y2="600.6"/><line class="cls-10" x1="556.74" y1="485.56" x2="728.18" y2="599.52"/><line class="cls-10" x1="728.06" y1="486.11" x2="556.2" y2="599.42"/></g><g class="cls-31"><g class="cls-4"><g class="cls-3"><g class="cls-32"><g class="cls-33"><g class="cls-34"><rect class="cls-6" x="373.92" y="720.52" width="174.69" height="228.99"/></g></g><g class="cls-34"><line class="cls-10" x1="375.54" y1="722.15" x2="546.98" y2="836.1"/><line class="cls-10" x1="547.19" y1="722.47" x2="375.33" y2="835.78"/></g><g class="cls-35"><g class="cls-34"><rect class="cls-6" x="11.51" y="720.52" width="174.69" height="228.99"/></g></g><g class="cls-34"><line class="cls-10" x1="13.14" y1="722.15" x2="184.57" y2="836.1"/><line class="cls-10" x1="184.79" y1="722.47" x2="12.93" y2="835.78"/></g><g class="cls-36"><g class="cls-34"><rect class="cls-6" x="555.12" y="720.52" width="174.69" height="228.99"/></g></g><g class="cls-34"><line class="cls-10" x1="556.74" y1="722.15" x2="728.18" y2="836.1"/><line class="cls-10" x1="728.06" y1="722.69" x2="556.2" y2="836.01"/></g><g class="cls-37"><g class="cls-34"><rect class="cls-6" x="192.71" y="720.52" width="174.69" height="228.99"/></g></g><g class="cls-34"><line class="cls-10" x1="194.34" y1="722.15" x2="365.78" y2="836.1"/><line class="cls-10" x1="365.66" y1="722.69" x2="193.8" y2="836.01"/></g></g></g></g></g></g></g></svg>