<svg id="Layer_1" data-name="Layer 1" xmlns="http://www.w3.org/2000/svg" viewBox="0 0 655.58 880.76"><defs><style>.cls-1{fill-rule:evenodd;}</style></defs><title>05_header_bg</title><path class="cls-1" d="M592.81,738.44q0.4,3.77.5,7.45t0.1,7.45h0.4a30.6,30.6,0,0,1,5.56-7,36.61,36.61,0,0,1,7.55-5.46,41.21,41.21,0,0,1,8.84-3.58,34.53,34.53,0,0,1,9.24-1.29q17.88,0,26.42,9.44T660,772.41v59H646.84V780q0-15.49-5.36-23.74T621.61,748a50.32,50.32,0,0,0-5.56.79,24.2,24.2,0,0,0-9.63,4.37,31.57,31.57,0,0,0-9,10.73q-4,7.15-4,19.86v47.67H580.29V758.9q0-3.77-.3-9.53t-0.69-10.93h13.51Zm-90.26,29q0-6.16-.3-12.51t-0.5-16.49h12.91v17.28h0.4a28.89,28.89,0,0,1,4-7.25,31.13,31.13,0,0,1,6.26-6.26,30.72,30.72,0,0,1,8.54-4.47,33.52,33.52,0,0,1,11-1.69,35.59,35.59,0,0,1,9.73,1.19L552,750.16a22.05,22.05,0,0,0-7.55-1A27,27,0,0,0,531.55,752a28.63,28.63,0,0,0-8.94,7.35,30.53,30.53,0,0,0-5.26,9.63,31.91,31.91,0,0,0-1.69,9.93v52.44H502.55v-64ZM382.28,788.5a39.9,39.9,0,0,0,3.38,13.11,34.28,34.28,0,0,0,17.88,17.68,32.12,32.12,0,0,0,12.91,2.58A33.14,33.14,0,0,0,434.63,817a36.38,36.38,0,0,0,11.62-11.22l10.13,8.34Q448,824.65,438,829.22a51.38,51.38,0,0,1-21.55,4.57,49.44,49.44,0,0,1-19.17-3.67,44.91,44.91,0,0,1-15.2-10.23,48.47,48.47,0,0,1-10-15.49,50.72,50.72,0,0,1-3.67-19.47A52,52,0,0,1,372,765.46,47.13,47.13,0,0,1,381.89,750a45.67,45.67,0,0,1,14.9-10.23,46.24,46.24,0,0,1,18.47-3.67,45.31,45.31,0,0,1,18.87,3.77,41.89,41.89,0,0,1,14,10,42.94,42.94,0,0,1,8.64,14.7,53.62,53.62,0,0,1,3,18v6H382.28Zm63.17-10.73q0-13.31-7.95-21.55T415.26,748a31.73,31.73,0,0,0-12.32,2.48,34.66,34.66,0,0,0-10.43,6.65,33.36,33.36,0,0,0-7.15,9.53,24.58,24.58,0,0,0-2.68,11.12h62.77ZM310.32,815.32l28.41-76.88h15.89l-46.48,117.2q-4.17,10.73-10.63,17.08t-18.57,6.36q-3,0-6.06-.2a24,24,0,0,1-6.06-1.19L268.21,865a21.14,21.14,0,0,0,9.93,2.19q7,0,10.93-4.37a38.13,38.13,0,0,0,7-12.32l6.75-17.88-38.14-94.16h16.49ZM221.65,774.4V772q0-24-23.84-24a41.06,41.06,0,0,0-28.41,10.93l-7.95-9.34q13.11-13.51,39.33-13.51a42.74,42.74,0,0,1,13,2,29.42,29.42,0,0,1,10.83,6.06A30,30,0,0,1,232,754.33a35.51,35.51,0,0,1,2.78,14.7v41.52q0,5.36.5,11.22t1.09,9.63H223.64q-0.6-3.38-.89-7.35t-0.3-7.75H222q-5.76,9.34-13.61,13.41t-19.17,4.07a42.16,42.16,0,0,1-11.92-1.69,30.42,30.42,0,0,1-10.23-5.16A26.25,26.25,0,0,1,160,818.4a24.9,24.9,0,0,1-2.68-11.82q0-11.32,5.86-17.78a35.84,35.84,0,0,1,14.7-9.63,72.43,72.43,0,0,1,18.87-4q10-.79,18.37-0.79h6.56Zm-7.75,10.73q-5,0-12.42.5a71.7,71.7,0,0,0-14.3,2.38,31.48,31.48,0,0,0-11.72,5.86,13.34,13.34,0,0,0-4.87,10.93,15.47,15.47,0,0,0,1.89,7.85,15.71,15.71,0,0,0,5.07,5.36,21.58,21.58,0,0,0,7.05,3,34.78,34.78,0,0,0,7.85.89,29.88,29.88,0,0,0,12.42-2.38,25.27,25.27,0,0,0,14.1-16,39.14,39.14,0,0,0,1.69-11.62v-6.75H213.9ZM34.06,690.77H76a78.53,78.53,0,0,1,16.88,1.79,43,43,0,0,1,14.5,6,30.87,30.87,0,0,1,10.13,10.93q3.77,6.75,3.77,16.69a31.09,31.09,0,0,1-6.46,19.77q-6.46,8.24-18.37,11v0.4q14.9,1.19,23.34,10.43t8.44,24.73a43.7,43.7,0,0,1-1.69,9.93,33.71,33.71,0,0,1-7.05,13q-5.36,6.46-15.49,11.22t-27,4.77H34.06V690.77Zm14.3,61.58h28.8a41.26,41.26,0,0,0,10.23-1.29,26.32,26.32,0,0,0,9.14-4.27,22.36,22.36,0,0,0,9.24-19.07,30.2,30.2,0,0,0-.89-6.16,20.38,20.38,0,0,0-4-7.95,24.84,24.84,0,0,0-9-6.85q-6-2.88-16.09-2.88H48.36v48.47Zm0,65.95H75.78a63.2,63.2,0,0,0,14.5-1.59A36.09,36.09,0,0,0,102,811.84a24.54,24.54,0,0,0,7.85-8.24,23.36,23.36,0,0,0,2.88-11.92q0-13.91-8.94-20.66t-26.22-6.75H48.36v54ZM588.84,575.16q18.75-30.44,41.81-30.44,24.16,0,24.16,25,0,7.17-4.08,24.82l-5.85,26.69a112.57,112.57,0,0,0-3,23.72q0,10.81,7.94,10.81,6.51,0,14.45-5.18l4.08,6.62Q653.59,670,640.8,670q-9.38,0-14.95-6.07t-5.57-16.44q0-10.37,4.3-30.56l5.18-23.39q3.31-13.68,3.31-21.07,0-13.35-10.37-13.35-12.58,0-25.87,17.15T580,610l-12.13,57.8H546.81l29.34-139.65q2.1-9.93,2.1-11.91,0-10.59-15.88-10.59H560.6l2-9.49h41.59l-8.82,41.48q-4,18.53-8.93,37.5h2.43Zm-79.89,64.42q2.32,1.43,2.32,5.63,0,9-10.64,16.93T472.1,670q-19.74,0-31.88-12.46t-12.13-34.2q0-29.56,19.08-54.22t48.2-24.65q15.55,0,24.27,6.18t8.71,15.44a14.15,14.15,0,0,1-5.46,11.36Q517.44,582,508.28,582q0-12-4.63-19.36t-12.8-7.34q-15.77,0-27.52,23.61t-11.75,46.22q0,30.67,24.82,30.67Q496.15,655.79,508.95,639.58ZM401.28,577.26q0-17.87-9-17.87-10.48,0-22.23,20.63a163.39,163.39,0,0,0-17.37,46.66l-8.49,41.14H323.07L342,577a51.7,51.7,0,0,0,1.32-10.15q0-10.7-18-10.7h-1.87l2.1-9.49h39.93l-4.74,32.54h2.32q9-20.19,17.87-27.47a31.28,31.28,0,0,1,20.52-7.28Q420,544.49,420,560,420,577.26,401.28,577.26ZM178.19,546.7h42l-14.89,67.62q-4.52,20.52-4.52,27.25,0,13.79,11,13.79,11.58,0,25-16.71T254.3,603l11.8-56.26h21.84l-15.55,72.58q-3.42,16-3.42,25,0,11.47,7.5,11.47,6.4,0,14.45-5l4.08,6.62Q280.66,670,266.33,670A17.27,17.27,0,0,1,252.59,664q-5.24-6.07-5.24-15.33a92.85,92.85,0,0,1,1.1-13.35h-1.76q-12.24,20.19-21.9,27.36A35.62,35.62,0,0,1,203,669.8q-24.16,0-24.16-25,0-7.17,4.08-24.82l8.82-39.6a68.2,68.2,0,0,0,2-13.46q0-10.7-15.77-10.7H176.2Zm-67.89,16.1q-5.18-8.16-17.1-8.16-19.3,0-32.38,24.54T47.75,629.65q0,26.14,14.23,26.14,11.25,0,23.61-16.66a90.39,90.39,0,0,0,16.33-36.4ZM97.5,633.73H96.07Q79.85,670,53.82,670,40,670,32.36,659.16T24.7,628.77q0-31.11,19.36-57.69T92,544.49q12.69,0,22.17,5.41a124.72,124.72,0,0,1,2.54-12.69l2.21-10.81a64.62,64.62,0,0,0,1.54-10.15q0-10.59-15.77-10.59h-1.76l2-9.49h41.59l-26.25,123.1q-3.31,15.55-3.31,25,0,11.47,7.39,11.47,6.4,0,16.33-5.85l4.08,6.62Q128.5,670,112.83,670q-17.65,0-17.65-18.75A82.78,82.78,0,0,1,97.5,633.73ZM620.27,397.57h19.07v12.08h0.32a24,24,0,0,1,9.06-10.33,25.05,25.05,0,0,1,13.51-3.66,18.22,18.22,0,0,1,3.42.32q1.67,0.32,3.42.79v18.43q-2.38-.64-4.69-1a26.63,26.63,0,0,0-4.53-.4q-6.68,0-10.73,2.46a19.56,19.56,0,0,0-6.2,5.64,18.77,18.77,0,0,0-2.86,6.36,24,24,0,0,0-.71,4.77v40.84H620.27V397.57Zm-34.06,30.51Q586,419.66,581,414.81T566.82,410q-8.58,0-13.59,4.93t-6.12,13.19h39.09Zm-39.09,14.3q1,8.58,6.68,13.35a20.89,20.89,0,0,0,13.83,4.77,22.76,22.76,0,0,0,12-2.94,33.26,33.26,0,0,0,8.5-7.39l13.67,10.33a38.73,38.73,0,0,1-14.94,11.76,44,44,0,0,1-17.32,3.5,45.78,45.78,0,0,1-16.21-2.86,38.87,38.87,0,0,1-13.19-8.1,38.45,38.45,0,0,1-8.82-12.63,43.15,43.15,0,0,1,0-32.9,38.45,38.45,0,0,1,8.82-12.63,38.87,38.87,0,0,1,13.19-8.1,45.78,45.78,0,0,1,16.21-2.86,37.05,37.05,0,0,1,14.54,2.78,31.19,31.19,0,0,1,11.28,8,37.07,37.07,0,0,1,7.31,13,54.94,54.94,0,0,1,2.62,17.72v5.24H547.11Zm-34.06,31.47H494.93V461.61h-0.32a26.74,26.74,0,0,1-8.26,9.93q-5.56,4.21-15.1,4.21a30.71,30.71,0,0,1-13-2.46,23.33,23.33,0,0,1-8.66-6.67,26,26,0,0,1-4.77-9.61,43.91,43.91,0,0,1-1.43-11.28V397.57h19.07v38.62q0,3.18.32,7.07a25.37,25.37,0,0,0,1.67,7.31,14,14,0,0,0,4.13,5.72q2.78,2.3,7.87,2.3a18.21,18.21,0,0,0,8-1.59,15.43,15.43,0,0,0,5.4-4.29,17.08,17.08,0,0,0,3.1-6.2,27.68,27.68,0,0,0,1-7.31V397.57h19.07v76.28ZM361.39,435.71a24.81,24.81,0,0,0,1.51,8.58,21.54,21.54,0,0,0,4.45,7.31,22.54,22.54,0,0,0,32.9,0,21.53,21.53,0,0,0,4.45-7.31,25.14,25.14,0,0,0,0-17.16,21.53,21.53,0,0,0-4.45-7.31,22.54,22.54,0,0,0-32.9,0,21.54,21.54,0,0,0-4.45,7.31A24.81,24.81,0,0,0,361.39,435.71Zm63.25,74.37H405.57V464.15h-0.48a27.17,27.17,0,0,1-3.66,3.89,29.22,29.22,0,0,1-5.4,3.73,32.87,32.87,0,0,1-7.31,2.86,36.83,36.83,0,0,1-9.53,1.11,35.74,35.74,0,0,1-14.94-3.1,34.8,34.8,0,0,1-11.68-8.5A39.13,39.13,0,0,1,345,451.44a45,45,0,0,1-2.7-15.73A47.58,47.58,0,0,1,344.86,420a36.35,36.35,0,0,1,7.47-12.71,35.43,35.43,0,0,1,11.84-8.5,38.29,38.29,0,0,1,15.81-3.1,36,36,0,0,1,15.1,3.18A24.53,24.53,0,0,1,406.2,409h0.32V397.57h18.12V510.08ZM261,371.67a11,11,0,0,1,3.42-8,11.74,11.74,0,0,1,8.66-3.42,12.61,12.61,0,0,1,8.82,3.26,11.15,11.15,0,0,1,0,16.37,12.61,12.61,0,0,1-8.82,3.26,11.74,11.74,0,0,1-8.66-3.42A11,11,0,0,1,261,371.67Zm2.7,25.9h19.07v76.28H263.7V397.57Zm-63.14,35.28-26.38-35.28h23.2l15.26,22.88,16.53-22.88h21.77l-26.06,35.28,30.67,41h-23.2l-19.86-27.33-20,27.33H169.89Zm-55.68,6.83h-4q-4,0-8.9.32a46.69,46.69,0,0,0-9.3,1.51,21.26,21.26,0,0,0-7.39,3.5,7.63,7.63,0,0,0-3,6.44A8.12,8.12,0,0,0,113.5,456a10.79,10.79,0,0,0,3.1,3.1,13,13,0,0,0,4.29,1.83,20.92,20.92,0,0,0,4.77.56q9.85,0,14.54-4.69T144.88,444v-4.29ZM146,463.36h-0.48A24.55,24.55,0,0,1,135,472.82a32.91,32.91,0,0,1-14,2.94,37.13,37.13,0,0,1-10.25-1.43,27.76,27.76,0,0,1-8.9-4.29,22,22,0,0,1-6.28-7.15,20.28,20.28,0,0,1-2.38-10,23.07,23.07,0,0,1,2.22-10.57,21.71,21.71,0,0,1,6-7.31,30.2,30.2,0,0,1,8.66-4.69,59.32,59.32,0,0,1,10.25-2.62,90.87,90.87,0,0,1,10.73-1.11q5.4-.24,10.17-0.24H146v-2.07q0-7.15-4.93-10.73T128.51,410a29.51,29.51,0,0,0-11.28,2.15,28.57,28.57,0,0,0-9.06,5.8l-10-10A37,37,0,0,1,113,398.52a54.7,54.7,0,0,1,17.56-2.86,44.22,44.22,0,0,1,13.67,1.83,30.07,30.07,0,0,1,9.22,4.69,20.73,20.73,0,0,1,5.64,6.59,30.62,30.62,0,0,1,2.86,7.55,41.3,41.3,0,0,1,1,7.39q0.16,3.58.16,6.28v43.86H146V463.36ZM50.59,379.45H16.1V361.34h89v18.12H70.61v94.4h-20v-94.4Zm590.15-49.78v4H615.38v-4h0.78a18.65,18.65,0,0,0,3-.23,5.93,5.93,0,0,0,2.44-.94,5,5,0,0,0,1.66-2,8.5,8.5,0,0,0,.62-3.54V293.5a7.63,7.63,0,0,0-.62-3.34,4.79,4.79,0,0,0-1.68-2,6.32,6.32,0,0,0-2.46-.92,18.35,18.35,0,0,0-3-.23h-0.28v-4h15.23l1.24,7.64h0.46a20.65,20.65,0,0,1,3.11-4.3,13.55,13.55,0,0,1,3.45-2.62,13,13,0,0,1,3.87-1.29,25.88,25.88,0,0,1,4.3-.35,19.08,19.08,0,0,1,6.65,1.08,12.54,12.54,0,0,1,5,3.31,14.79,14.79,0,0,1,3.13,5.73,28.36,28.36,0,0,1,1.08,8.33V322.9a9.8,9.8,0,0,0,.53,3.54,4.54,4.54,0,0,0,1.5,2,5.34,5.34,0,0,0,2.3.94,17.1,17.1,0,0,0,2.9.23h0.32v4H654.5V301.09a24.46,24.46,0,0,0-.55-5.48,10.85,10.85,0,0,0-1.77-4.05,7.63,7.63,0,0,0-3.2-2.51,12.22,12.22,0,0,0-4.83-.85,10.81,10.81,0,0,0-5.41,1.24,9.86,9.86,0,0,0-3.52,3.36,14.69,14.69,0,0,0-1.91,4.88,28.4,28.4,0,0,0-.58,5.8v19.88a7.63,7.63,0,0,0,.62,3.34,4.47,4.47,0,0,0,1.68,1.91,6.51,6.51,0,0,0,2.46.85,20.34,20.34,0,0,0,3,.21h0.28Zm-51.36,4.88a23.32,23.32,0,0,1-9.18-1.73,18.18,18.18,0,0,1-6.88-5,22.91,22.91,0,0,1-4.3-8.12,36.77,36.77,0,0,1-1.5-10.93q0-13.21,5.43-19.88t15.46-6.67a22.28,22.28,0,0,1,8.19,1.43,16,16,0,0,1,6.17,4.26,19.27,19.27,0,0,1,3.89,7,31.9,31.9,0,0,1,1.36,9.78V309H576.63a39.15,39.15,0,0,0,1,8.86,17.37,17.37,0,0,0,2.71,6.1,10.69,10.69,0,0,0,4.35,3.52,14.7,14.7,0,0,0,5.94,1.13,17.73,17.73,0,0,0,4.53-.55,17.16,17.16,0,0,0,3.8-1.47,15.67,15.67,0,0,0,3-2.09,12.15,12.15,0,0,0,2.14-2.46,2.94,2.94,0,0,1,1.22,1.15,3.68,3.68,0,0,1,.58,2.07,5.87,5.87,0,0,1-1,3.06,10.18,10.18,0,0,1-3.08,3,19.1,19.1,0,0,1-5.18,2.3A25.79,25.79,0,0,1,589.38,334.55Zm-1.15-47.31a9.13,9.13,0,0,0-8.08,4.26q-2.83,4.26-3.34,12.45h21.68a38.82,38.82,0,0,0-.55-6.81,17.59,17.59,0,0,0-1.75-5.29,8.8,8.8,0,0,0-3.15-3.41A9.05,9.05,0,0,0,588.23,287.24Zm-34.1,42.34a24.55,24.55,0,0,0,3.13-.18q1.43-.18,2.9-0.46v4.14a11.13,11.13,0,0,1-1.56.55q-1,.28-2.09.48t-2.37.32q-1.24.12-2.35,0.12a22,22,0,0,1-6.17-.76,9.53,9.53,0,0,1-4.23-2.46,10.48,10.48,0,0,1-2.46-4.51,25.17,25.17,0,0,1-.81-6.86V288.48h-7.18V284.7a11.84,11.84,0,0,0,3.75-.69,9,9,0,0,0,3.61-2.3,13.81,13.81,0,0,0,2.6-4.17,34.1,34.1,0,0,0,1.73-6.05h4.33v11.6h12.33v5.38H546.94v31.76q0,4.83,2,7.09A6.57,6.57,0,0,0,554.12,329.58Zm-47.73,5a30.48,30.48,0,0,1-6.42-.62,15.28,15.28,0,0,1-4.9-1.89,9.25,9.25,0,0,1-3.13-3.13,8.37,8.37,0,0,1-1.1-4.35,7.12,7.12,0,0,1,.62-3.15,5.9,5.9,0,0,1,1.52-2,5.39,5.39,0,0,1,1.93-1,6.79,6.79,0,0,1,1.86-.3,20.39,20.39,0,0,0,.51,4.65,10.34,10.34,0,0,0,1.7,3.8,8.29,8.29,0,0,0,3.15,2.58,11,11,0,0,0,4.81.94,14.59,14.59,0,0,0,4.46-.62,9.25,9.25,0,0,0,3.24-1.75,7.46,7.46,0,0,0,2-2.72,8.63,8.63,0,0,0,.69-3.47,7.79,7.79,0,0,0-.53-3,6.35,6.35,0,0,0-1.84-2.37,19,19,0,0,0-3.57-2.26q-2.25-1.15-5.66-2.62-3.64-1.61-6.33-3.11a19.93,19.93,0,0,1-4.44-3.24,11.55,11.55,0,0,1-2.62-4,14.58,14.58,0,0,1-.87-5.32,12.41,12.41,0,0,1,1.27-5.71,11.47,11.47,0,0,1,3.61-4.17,17.19,17.19,0,0,1,5.62-2.55,28.12,28.12,0,0,1,7.27-.87,23,23,0,0,1,5.94.69,14.42,14.42,0,0,1,4.33,1.86,8,8,0,0,1,2.62,2.76,6.82,6.82,0,0,1,.88,3.34,5.19,5.19,0,0,1-1.77,4.12,7.45,7.45,0,0,1-5,1.54q0-4.74-2-7.36t-6.14-2.62a13.36,13.36,0,0,0-4.1.55,7.3,7.3,0,0,0-2.78,1.56,6.12,6.12,0,0,0-1.59,2.39,8.75,8.75,0,0,0-.51,3,7,7,0,0,0,.64,3.11,7.11,7.11,0,0,0,2,2.42,18.51,18.51,0,0,0,3.64,2.14q2.23,1,5.36,2.32a60.06,60.06,0,0,1,6.4,3.08,19.25,19.25,0,0,1,4.4,3.31,11.54,11.54,0,0,1,2.55,4.05,15.05,15.05,0,0,1,.83,5.2,14.65,14.65,0,0,1-1.33,6.44,12.7,12.7,0,0,1-3.77,4.63,16.66,16.66,0,0,1-5.87,2.78A29.36,29.36,0,0,1,506.4,334.55Zm-59.88-26.28a55,55,0,0,0,.69,9.25,20.44,20.44,0,0,0,2.23,6.7,10.54,10.54,0,0,0,4,4.07,12.11,12.11,0,0,0,6,1.38,12,12,0,0,0,6-1.38,10.43,10.43,0,0,0,4-4.07,20.46,20.46,0,0,0,2.19-6.7,56.83,56.83,0,0,0,.67-9.25,54.1,54.1,0,0,0-.69-9.2,20.22,20.22,0,0,0-2.21-6.6,10.13,10.13,0,0,0-4-4,12.46,12.46,0,0,0-6-1.33,12.32,12.32,0,0,0-6,1.33,10.19,10.19,0,0,0-4,4,20.24,20.24,0,0,0-2.21,6.6A54.21,54.21,0,0,0,446.52,308.27Zm34.89,0q0,13.3-5.64,19.79t-16.5,6.49a24.61,24.61,0,0,1-9.16-1.61,17.55,17.55,0,0,1-6.88-4.88,22.15,22.15,0,0,1-4.33-8.22,40.17,40.17,0,0,1-1.5-11.58q0-13.21,5.59-19.65t16.55-6.44a24.93,24.93,0,0,1,9.16,1.59,17.45,17.45,0,0,1,6.88,4.83,22,22,0,0,1,4.33,8.15A39.65,39.65,0,0,1,481.41,308.27Zm-76,21.4a18.65,18.65,0,0,0,3-.23,5.93,5.93,0,0,0,2.44-.94,5,5,0,0,0,1.66-2,8.48,8.48,0,0,0,.62-3.54V272.37a7.61,7.61,0,0,0-.62-3.34,4.79,4.79,0,0,0-1.68-2,6.07,6.07,0,0,0-2.46-.9,20.33,20.33,0,0,0-3-.21h-1.2v-4H422V322.9a8.78,8.78,0,0,0,.6,3.54,4.72,4.72,0,0,0,1.66,2,6.11,6.11,0,0,0,2.46.94,18.66,18.66,0,0,0,3,.23H431v4H404.22v-4h1.2Zm-16.52,4H361.7v-4H362a18.64,18.64,0,0,0,3-.23,5.93,5.93,0,0,0,2.44-.94,5,5,0,0,0,1.66-2,8.48,8.48,0,0,0,.62-3.54V293.5a7.61,7.61,0,0,0-.62-3.34,4.79,4.79,0,0,0-1.68-2,6.33,6.33,0,0,0-2.46-.92,18.34,18.34,0,0,0-3-.23H361.7v-4h14.5l1.79,9.34h0.46q0.92-2.12,1.89-4a13.14,13.14,0,0,1,2.37-3.27,9.92,9.92,0,0,1,3.48-2.21,14.47,14.47,0,0,1,5.2-.81q5.15,0,7.66,1.79a5.86,5.86,0,0,1,2.51,5.06,7.42,7.42,0,0,1-.48,2.72,5.29,5.29,0,0,1-1.54,2.14,7.3,7.3,0,0,1-2.72,1.38,14.64,14.64,0,0,1-4.05.48q0-3.91-1.1-5.64a4.23,4.23,0,0,0-3.87-1.73,5.24,5.24,0,0,0-3.13,1,9.3,9.3,0,0,0-2.42,2.62,17.3,17.3,0,0,0-1.75,3.75,34.16,34.16,0,0,0-1.15,4.35,40.45,40.45,0,0,0-.62,4.44q-0.18,2.21-.18,4v14.82a7.61,7.61,0,0,0,.62,3.34,4.47,4.47,0,0,0,1.68,1.91,6.51,6.51,0,0,0,2.46.85,20.33,20.33,0,0,0,3,.21h2.62v4Zm-63.1-4v4H300.44v-4h0.74a18.65,18.65,0,0,0,3-.23,5.93,5.93,0,0,0,2.44-.94,5,5,0,0,0,1.66-2,8.5,8.5,0,0,0,.62-3.54V272.37a7.63,7.63,0,0,0-.62-3.34,4.79,4.79,0,0,0-1.68-2,6.06,6.06,0,0,0-2.46-.9,20.34,20.34,0,0,0-3-.21h-0.74v-4h17.35v20.71q0,1.29,0,2.69T317.6,288q-0.09,1.38-.18,2.72h0.46q4.24-8.56,13.85-8.56a21.58,21.58,0,0,1,7.11,1.08,12.93,12.93,0,0,1,5.22,3.31,14.53,14.53,0,0,1,3.22,5.73,27.79,27.79,0,0,1,1.1,8.33V322.9a9.42,9.42,0,0,0,.55,3.54,4.7,4.7,0,0,0,1.52,2,5.34,5.34,0,0,0,2.3.94,17.1,17.1,0,0,0,2.9.23h0.28v4H339.56V301.09a24.46,24.46,0,0,0-.55-5.48,10.87,10.87,0,0,0-1.77-4.05,7.63,7.63,0,0,0-3.2-2.51,12.22,12.22,0,0,0-4.83-.85,11.15,11.15,0,0,0-5.09,1.08,9.51,9.51,0,0,0-3.54,3.08,14.18,14.18,0,0,0-2.09,4.83,26.51,26.51,0,0,0-.69,6.28v19.88a7.63,7.63,0,0,0,.62,3.34,4.47,4.47,0,0,0,1.68,1.91,6.52,6.52,0,0,0,2.46.85,20.34,20.34,0,0,0,3,.21h0.28Zm-54.86-42.8a10.77,10.77,0,0,0-4.4.76,6.16,6.16,0,0,0-2.62,2.14,8.14,8.14,0,0,0-1.27,3.27,24.39,24.39,0,0,0-.32,4.1,11,11,0,0,1-6-1.33q-2-1.33-2-4.6a6.51,6.51,0,0,1,1.33-4.14,9.78,9.78,0,0,1,3.66-2.78,20.79,20.79,0,0,1,5.41-1.59,40.65,40.65,0,0,1,6.58-.51,29.74,29.74,0,0,1,7.55.85,12.87,12.87,0,0,1,5.39,2.78,11.81,11.81,0,0,1,3.24,5,23.34,23.34,0,0,1,1.08,7.62V322.9a13.8,13.8,0,0,0,.32,3.27,4.85,4.85,0,0,0,1,2.07,3.72,3.72,0,0,0,1.82,1.1,9.88,9.88,0,0,0,2.69.32h0.28v4H281.93l-1.47-8.1h-0.78q-1.47,2-2.85,3.64a16.65,16.65,0,0,1-3,2.85,13.2,13.2,0,0,1-3.75,1.86,16.72,16.72,0,0,1-5,.67,18.31,18.31,0,0,1-5.82-.9,12.26,12.26,0,0,1-4.65-2.76,12.8,12.8,0,0,1-3.06-4.69,18.39,18.39,0,0,1-1.1-6.7q0-7.5,5.34-11.14t16.16-4l7.82-.28v-5.66a36.6,36.6,0,0,0-.28-4.67,9.45,9.45,0,0,0-1.2-3.68,6.18,6.18,0,0,0-2.65-2.39A10.55,10.55,0,0,0,270.93,286.87ZM259.52,320q0,4.42,1.86,6.6t5.78,2.19a14,14,0,0,0,5.18-.92,11,11,0,0,0,4-2.62,11.5,11.5,0,0,0,2.51-4.14,16,16,0,0,0,.87-5.43V308l-6,.28a28.29,28.29,0,0,0-6.7,1,11.53,11.53,0,0,0-4.35,2.26,8.08,8.08,0,0,0-2.37,3.57A15.25,15.25,0,0,0,259.52,320Zm-50.21-36.59,9.44,27.94q0.55,1.7,1.17,3.66t1.17,3.87q0.55,1.91,1,3.61t0.69,2.9h0.28q0.41-2.35,1.33-5.78t2.35-8l4.69-15.19a23.08,23.08,0,0,0,.62-2.55,12.41,12.41,0,0,0,.25-2.14,4.06,4.06,0,0,0-1.54-3.54,8.14,8.14,0,0,0-4.72-1.1h-0.64v-4h20.16v4h-1.2a9.17,9.17,0,0,0-2.39.28,4.06,4.06,0,0,0-1.82,1.08,8.17,8.17,0,0,0-1.5,2.23,25.28,25.28,0,0,0-1.38,3.77l-12.15,39.21h-7.55l-11.23-33.18-1.7-6.21-13.35,39.4h-7.46l-12.33-41.56a14.06,14.06,0,0,0-1.15-2.44,5.42,5.42,0,0,0-1.38-1.54,4.78,4.78,0,0,0-1.8-.81,10.92,10.92,0,0,0-2.39-.23h-0.28v-4h23.29v4h-1.24a8.61,8.61,0,0,0-4.23.83,3.31,3.31,0,0,0-1.43,3.13,8.66,8.66,0,0,0,.25,1.89q0.25,1.1.53,2.16l4.42,15.83q0.46,1.7,1,3.73t0.94,4q0.44,2,.81,3.75t0.6,2.95h0.28q0.23-1.2.62-2.78t0.92-3.41q0.53-1.82,1.13-3.7t1.2-3.59l9.8-28.49h5.94Zm-59,50.26h-27.2v-4h0.28a18.66,18.66,0,0,0,3-.23,5.93,5.93,0,0,0,2.44-.94,5,5,0,0,0,1.66-2,8.49,8.49,0,0,0,.62-3.54V293.5a7.62,7.62,0,0,0-.62-3.34,4.79,4.79,0,0,0-1.68-2,6.32,6.32,0,0,0-2.46-.92,18.35,18.35,0,0,0-3-.23h-0.28v-4h14.5l1.79,9.34h0.46q0.92-2.12,1.89-4a13.13,13.13,0,0,1,2.37-3.27,9.92,9.92,0,0,1,3.47-2.21,14.47,14.47,0,0,1,5.2-.81q5.15,0,7.66,1.79A5.86,5.86,0,0,1,163,289a7.43,7.43,0,0,1-.48,2.72,5.29,5.29,0,0,1-1.54,2.14,7.3,7.3,0,0,1-2.72,1.38,14.64,14.64,0,0,1-4.05.48q0-3.91-1.1-5.64a4.23,4.23,0,0,0-3.87-1.73,5.24,5.24,0,0,0-3.13,1A9.29,9.29,0,0,0,143.7,292a17.3,17.3,0,0,0-1.75,3.75,34.18,34.18,0,0,0-1.15,4.35,40.66,40.66,0,0,0-.62,4.44q-0.18,2.21-.18,4v14.82a7.62,7.62,0,0,0,.62,3.34,4.47,4.47,0,0,0,1.68,1.91,6.51,6.51,0,0,0,2.46.85,20.34,20.34,0,0,0,3,.21h2.62v4Zm-53.71.92a23.33,23.33,0,0,1-9.18-1.73,18.18,18.18,0,0,1-6.88-5,22.92,22.92,0,0,1-4.3-8.12,36.78,36.78,0,0,1-1.5-10.93q0-13.21,5.43-19.88t15.46-6.67a22.28,22.28,0,0,1,8.19,1.43,16,16,0,0,1,6.17,4.26,19.27,19.27,0,0,1,3.89,7,31.91,31.91,0,0,1,1.36,9.78V309H83.89a39.14,39.14,0,0,0,1,8.86,17.36,17.36,0,0,0,2.72,6.1A10.69,10.69,0,0,0,92,327.48a14.69,14.69,0,0,0,5.94,1.13,17.73,17.73,0,0,0,4.53-.55,17.16,17.16,0,0,0,3.8-1.47,15.67,15.67,0,0,0,3-2.09,12.13,12.13,0,0,0,2.14-2.46,2.94,2.94,0,0,1,1.22,1.15,3.68,3.68,0,0,1,.58,2.07,5.87,5.87,0,0,1-1,3.06,10.17,10.17,0,0,1-3.08,3,19.1,19.1,0,0,1-5.18,2.3A25.8,25.8,0,0,1,96.64,334.55Zm-1.15-47.31a9.13,9.13,0,0,0-8.08,4.26q-2.83,4.26-3.34,12.45h21.68a38.76,38.76,0,0,0-.55-6.81,17.59,17.59,0,0,0-1.75-5.29,8.8,8.8,0,0,0-3.15-3.41A9.06,9.06,0,0,0,95.49,287.24Zm-80.13-.18v-4H38.92v4h-1.2a6.82,6.82,0,0,0-4.26,1.1,4.12,4.12,0,0,0-1.4,3.45,7.11,7.11,0,0,0,.18,1.59,18,18,0,0,0,.55,1.86l6.4,17.81q0.6,1.66,1.24,3.66t1.22,3.94q0.58,1.93,1,3.66a28.53,28.53,0,0,1,.64,2.92h0.32a23.21,23.21,0,0,1,.76-2.51q0.53-1.5,1.2-3.27T47,317.66q0.71-1.84,1.36-3.54l6.77-18.36a12.36,12.36,0,0,0,.67-2.21A9.77,9.77,0,0,0,56,291.7a4.06,4.06,0,0,0-1.54-3.54,8,8,0,0,0-4.67-1.1H49.1v-4H69.3v4H68.15a8,8,0,0,0-2.35.3,4,4,0,0,0-1.75,1.13,9.41,9.41,0,0,0-1.5,2.26q-0.71,1.43-1.59,3.68L46.1,333.63H37.5L22.36,292.07a14.06,14.06,0,0,0-1.15-2.44,5.42,5.42,0,0,0-1.38-1.54,4.78,4.78,0,0,0-1.8-.81,10.92,10.92,0,0,0-2.39-.23H15.36ZM628.89,175.83l1.6-11.68h11.34L644,148.23h13.74l-2.18,15.92h15.12l-1.6,11.68H654l-3.44,24a11.23,11.23,0,0,0,.63,6.53q1.2,2.4,5.78,2.4a23.18,23.18,0,0,0,4.07-.4,9.51,9.51,0,0,0,3.61-1.32L663,218.66a19.22,19.22,0,0,1-5.5,1.43,46,46,0,0,1-5.61.4,26.51,26.51,0,0,1-8.82-1.2,9.8,9.8,0,0,1-5-3.66,12.12,12.12,0,0,1-1.89-6.13,42.06,42.06,0,0,1,.46-8.47l3.55-25.19H628.89Zm-44.55,0,1.6-11.68h11.34l2.18-15.92H613.2L611,164.15h15.12l-1.6,11.68H609.43l-3.44,24a11.22,11.22,0,0,0,.63,6.53q1.2,2.4,5.78,2.4a23.18,23.18,0,0,0,4.07-.4,9.51,9.51,0,0,0,3.61-1.32l-1.6,11.57a19.22,19.22,0,0,1-5.5,1.43,46,46,0,0,1-5.61.4,26.51,26.51,0,0,1-8.82-1.2,9.8,9.8,0,0,1-5-3.66,12.12,12.12,0,0,1-1.89-6.13,42.06,42.06,0,0,1,.46-8.47l3.55-25.19H584.35ZM562.7,186.14q0.8-6.07-2.4-9.56t-9.73-3.49a15.24,15.24,0,0,0-10.31,3.55,18.52,18.52,0,0,0-5.73,9.5H562.7ZM533,196.44a13.22,13.22,0,0,0,.86,5.5A11.65,11.65,0,0,0,536.6,206a12,12,0,0,0,4.12,2.58,14.68,14.68,0,0,0,5.27.92,18.3,18.3,0,0,0,9-2.12,27.13,27.13,0,0,0,6.81-5.32l8.82,7.44A33.73,33.73,0,0,1,558.7,218a34.26,34.26,0,0,1-12.82,2.52,30.7,30.7,0,0,1-11.39-2.06,23.33,23.33,0,0,1-8.7-5.84,22.92,22.92,0,0,1-5.1-9.1,27.53,27.53,0,0,1-.69-11.85,32.31,32.31,0,0,1,4-11.85,33.46,33.46,0,0,1,7.67-9.1A34.17,34.17,0,0,1,542,164.84a35.38,35.38,0,0,1,12-2.06q11.56,0,17.52,7.73t4,22.16L575,196.44H533Zm-31.49-63.9H515.3l-12.14,86.57H489.42ZM466.4,191.63a16.77,16.77,0,0,0-.23-6.18,13.41,13.41,0,0,0-2.46-5.27,12.83,12.83,0,0,0-4.58-3.66,14.81,14.81,0,0,0-6.58-1.37,17.14,17.14,0,0,0-6.93,1.37,19,19,0,0,0-5.55,3.66,19.84,19.84,0,0,0-4,5.27,19.25,19.25,0,0,0-2,6.18,16.73,16.73,0,0,0,.23,6.18,13.39,13.39,0,0,0,2.46,5.27,12.82,12.82,0,0,0,4.58,3.66,14.81,14.81,0,0,0,6.58,1.37,17.55,17.55,0,0,0,7-1.37,18.73,18.73,0,0,0,9.5-8.93A20.11,20.11,0,0,0,466.4,191.63Zm-41.68-27.48h13.05l-1.14,8.24h0.23a21.47,21.47,0,0,1,9-7.33,28.37,28.37,0,0,1,11.22-2.29A25.73,25.73,0,0,1,468.17,165a20,20,0,0,1,7.67,6.13,22.68,22.68,0,0,1,4,9.16,33.89,33.89,0,0,1,.29,11.34A37.8,37.8,0,0,1,476.59,203a33,33,0,0,1-6.7,9.16,30.89,30.89,0,0,1-9.27,6.13,27.76,27.76,0,0,1-11.05,2.23,25.23,25.23,0,0,1-6.76-.8,20.59,20.59,0,0,1-5-2.06,16.46,16.46,0,0,1-3.49-2.69,20.55,20.55,0,0,1-2.29-2.81H431.7L427,245.22H413.27Zm-100.2,0h13.06l-1.26,8.59h0.23a23,23,0,0,1,6.93-6.93,20,20,0,0,1,11.39-3q12.94,0,15.69,10.19a24.35,24.35,0,0,1,8.59-7.73,23.79,23.79,0,0,1,11-2.46,19.3,19.3,0,0,1,9,1.83,13.21,13.21,0,0,1,5.38,5,18.44,18.44,0,0,1,2.35,7.5,37.8,37.8,0,0,1-.23,9.22L402,219.12H388.3L392.65,188a26.51,26.51,0,0,0,.23-4.87,10,10,0,0,0-1-4.12,6.7,6.7,0,0,0-2.75-2.81,10,10,0,0,0-4.92-1,12.05,12.05,0,0,0-9.68,4.41,17,17,0,0,0-2.69,4.58,21.44,21.44,0,0,0-1.37,5.21l-4.12,29.77H352.57l4.58-32.75q0.69-5.15-1.09-8.19t-6.81-3a14.29,14.29,0,0,0-6,1.15,13,13,0,0,0-4.29,3.09,16,16,0,0,0-2.86,4.47,19.22,19.22,0,0,0-1.43,5.27l-4.12,30H316.85Zm-62.18,27.48a16.73,16.73,0,0,0,.23,6.18,13.39,13.39,0,0,0,2.46,5.27,12.82,12.82,0,0,0,4.58,3.66,14.81,14.81,0,0,0,6.58,1.37,17.54,17.54,0,0,0,7-1.37,18.72,18.72,0,0,0,9.5-8.93,20.08,20.08,0,0,0,1.95-6.18,16.75,16.75,0,0,0-.23-6.18,13.42,13.42,0,0,0-2.46-5.27,12.83,12.83,0,0,0-4.58-3.66,14.81,14.81,0,0,0-6.58-1.37,17.13,17.13,0,0,0-6.93,1.37,19,19,0,0,0-5.55,3.66,19.84,19.84,0,0,0-4,5.27A19.22,19.22,0,0,0,262.34,191.63Zm-13.74,0a32.29,32.29,0,0,1,4-11.85,33.46,33.46,0,0,1,7.67-9.1,34.16,34.16,0,0,1,10.36-5.84,35.38,35.38,0,0,1,12-2.06,30.26,30.26,0,0,1,11.34,2.06,23.41,23.41,0,0,1,8.65,5.84,22.93,22.93,0,0,1,5.1,9.1,27.55,27.55,0,0,1,.69,11.85,32.27,32.27,0,0,1-4,11.85,34,34,0,0,1-7.61,9.1,33.42,33.42,0,0,1-10.31,5.84,35.38,35.38,0,0,1-12,2.06,30.71,30.71,0,0,1-11.39-2.06,23.33,23.33,0,0,1-8.7-5.84,22.93,22.93,0,0,1-5.1-9.1A27.54,27.54,0,0,1,248.6,191.63Zm-50.39-59.09H212l-7.67,54.39,24.39-22.79h17.63l-27.14,25,21,30H221.92l-18-28.06h-0.23l-3.89,28.06H186.07ZM59.65,164.15H72.71l-1.26,8.59h0.23a23,23,0,0,1,6.93-6.93,20,20,0,0,1,11.39-3q12.94,0,15.69,10.19a24.35,24.35,0,0,1,8.59-7.73,23.79,23.79,0,0,1,11-2.46,19.3,19.3,0,0,1,9,1.83,13.21,13.21,0,0,1,5.38,5,18.45,18.45,0,0,1,2.35,7.5,37.74,37.74,0,0,1-.23,9.22l-4.58,32.75H123.43L127.79,188a26.45,26.45,0,0,0,.23-4.87,10,10,0,0,0-1-4.12,6.71,6.71,0,0,0-2.75-2.81,10,10,0,0,0-4.92-1,12.06,12.06,0,0,0-9.68,4.41,17,17,0,0,0-2.69,4.58,21.46,21.46,0,0,0-1.37,5.21l-4.12,29.77H87.71l4.58-32.75q0.69-5.15-1.09-8.19t-6.81-3a14.29,14.29,0,0,0-6,1.15,13,13,0,0,0-4.29,3.09,16,16,0,0,0-2.86,4.47,19.24,19.24,0,0,0-1.43,5.27l-4.12,30H52ZM31.37,145.48a9.24,9.24,0,0,1,3.26-5.78,9.67,9.67,0,0,1,6.58-2.46,8.09,8.09,0,0,1,6.07,2.35,6.5,6.5,0,0,1,1.72,5.9,9.34,9.34,0,0,1-3.44,5.9,10.17,10.17,0,0,1-6.64,2.35,7.36,7.36,0,0,1-5.9-2.46A7,7,0,0,1,31.37,145.48Zm-0.69,18.67H44.42l-7.67,55H23ZM667.15,40.38H648.22v38.7a21,21,0,0,0,.7,6,8.41,8.41,0,0,0,2,3.58,6.77,6.77,0,0,0,3,1.75,14.27,14.27,0,0,0,3.86.49,18.3,18.3,0,0,0,4.91-.7,22.73,22.73,0,0,0,4.63-1.82l0.42,8.55a29.72,29.72,0,0,1-12.48,2.38,23.35,23.35,0,0,1-5.54-.7,13.06,13.06,0,0,1-5.26-2.66,14.67,14.67,0,0,1-3.93-5.33A21.4,21.4,0,0,1,639,81.75V40.38H625.09V32H639V13.46h9.25V32h18.93v8.41ZM547.92,110.77a29.55,29.55,0,0,0,10.59,8.76,31.71,31.71,0,0,0,14.51,3.3,31.14,31.14,0,0,0,11.92-2,20.66,20.66,0,0,0,7.92-5.54,21.32,21.32,0,0,0,4.35-8.2,36.6,36.6,0,0,0,1.33-10V85.25h-0.28a25.27,25.27,0,0,1-10.94,9.53,33.74,33.74,0,0,1-13.6,2.8,35.37,35.37,0,0,1-13.39-2.52,34.05,34.05,0,0,1-10.87-6.94,32,32,0,0,1-7.29-10.59,33.24,33.24,0,0,1-2.66-13.32A34.84,34.84,0,0,1,542,50.9,34.25,34.25,0,0,1,549,40.1a31.28,31.28,0,0,1,10.52-7.22,33.87,33.87,0,0,1,13.39-2.59,37.25,37.25,0,0,1,6.24.56,29.42,29.42,0,0,1,6.59,2,30.36,30.36,0,0,1,12.55,10.1h0.28V32h9.25V97a52.76,52.76,0,0,1-1.33,11.36,28,28,0,0,1-5.19,11.08,29.51,29.51,0,0,1-10.73,8.41q-6.87,3.37-17.95,3.37A45.07,45.07,0,0,1,555.07,128a40.71,40.71,0,0,1-14-10Zm1.68-46.83a25.14,25.14,0,0,0,1.89,9.75,25.63,25.63,0,0,0,5.19,8,25.15,25.15,0,0,0,7.71,5.47,22.69,22.69,0,0,0,9.61,2,25.71,25.71,0,0,0,17.67-6.94,22.34,22.34,0,0,0,5.4-7.92,25.51,25.51,0,0,0,1.75-10.38,27.92,27.92,0,0,0-1.68-9.75,23.37,23.37,0,0,0-4.91-8,23.7,23.7,0,0,0-7.85-5.47,25.54,25.54,0,0,0-10.38-2,22.7,22.7,0,0,0-9.61,2,25.15,25.15,0,0,0-7.71,5.47,25.63,25.63,0,0,0-5.19,8A25.14,25.14,0,0,0,549.6,63.94Zm-42.11-6.59V55.67q0-17-16.83-17a29,29,0,0,0-20.05,7.71L465,39.82q9.25-9.53,27.76-9.53a30.16,30.16,0,0,1,9.18,1.4A20.76,20.76,0,0,1,509.59,36a21.21,21.21,0,0,1,5.19,7.22,25.07,25.07,0,0,1,2,10.38V82.87q0,3.79.35,7.92t0.77,6.8h-9q-0.42-2.38-.63-5.19T508,86.94h-0.28a25.08,25.08,0,0,1-9.61,9.46,29.1,29.1,0,0,1-13.53,2.87,29.75,29.75,0,0,1-8.41-1.19A21.47,21.47,0,0,1,469,94.44a18.54,18.54,0,0,1-5-6,17.58,17.58,0,0,1-1.89-8.34q0-8,4.14-12.55a25.3,25.3,0,0,1,10.38-6.8,51.13,51.13,0,0,1,13.32-2.8q7.08-.56,13-0.56h4.63Zm-4.77,7.57q-3.5,0-8.76.35A50.61,50.61,0,0,0,483.86,67a22.23,22.23,0,0,0-8.27,4.14,9.41,9.41,0,0,0-3.44,7.71,10.92,10.92,0,0,0,1.33,5.54,11.08,11.08,0,0,0,3.58,3.79,15.23,15.23,0,0,0,5,2.1,24.56,24.56,0,0,0,5.54.63,21.09,21.09,0,0,0,8.76-1.68,17.84,17.84,0,0,0,10-11.29,27.66,27.66,0,0,0,1.19-8.2V64.92h-4.77Zm-88.81,56.93,0.42,0.14q1.12,0.28,2.45.56a12,12,0,0,0,2.45.28,10.14,10.14,0,0,0,5.4-1.26,7.85,7.85,0,0,0,3-3.3,13.79,13.79,0,0,0,1.26-4.42,40.74,40.74,0,0,0,.28-4.77V32h9.25v78.66q0,1.4-.14,4.84a18.32,18.32,0,0,1-1.75,6.94,15.43,15.43,0,0,1-5.47,6.17q-3.86,2.66-11.15,2.66a18.77,18.77,0,0,1-7.29-1.4ZM440.56,6.73a6.22,6.22,0,0,1-2.1,4.84,6.6,6.6,0,0,1-9.25,0,6.22,6.22,0,0,1-2.1-4.84,6.22,6.22,0,0,1,2.1-4.84,6.6,6.6,0,0,1,9.25,0A6.22,6.22,0,0,1,440.56,6.73ZM364,38.7L325.62,89.18h39.82v8.41H312.16V90.86l38.42-50.48H314.13V32H364V38.7ZM245.23,32q0.28,2.66.35,5.26t0.07,5.26h0.28a21.58,21.58,0,0,1,3.93-4.91,25.85,25.85,0,0,1,5.33-3.86,29.08,29.08,0,0,1,6.24-2.52,24.37,24.37,0,0,1,6.52-.91q12.62,0,18.65,6.66t6,19V97.59h-9.25V61.28q0-10.94-3.79-16.76t-14-5.82a35.52,35.52,0,0,0-3.93.56,17.09,17.09,0,0,0-6.8,3.08,22.28,22.28,0,0,0-6.38,7.57q-2.8,5-2.8,14V97.59H236.4V46.41q0-2.66-.21-6.73T235.7,32h9.53ZM201,57.35V55.67q0-17-16.83-17a29,29,0,0,0-20.05,7.71l-5.61-6.59q9.25-9.53,27.76-9.53a30.17,30.17,0,0,1,9.18,1.4A20.76,20.76,0,0,1,203.12,36a21.2,21.2,0,0,1,5.19,7.22,25.06,25.06,0,0,1,2,10.38V82.87q0,3.79.35,7.92t0.77,6.8h-9q-0.42-2.38-.63-5.19t-0.21-5.47H201.3a25.09,25.09,0,0,1-9.6,9.46,29.1,29.1,0,0,1-13.53,2.87,29.76,29.76,0,0,1-8.41-1.19,21.47,21.47,0,0,1-7.22-3.65,18.53,18.53,0,0,1-5-6,17.58,17.58,0,0,1-1.89-8.34q0-8,4.14-12.55a25.3,25.3,0,0,1,10.38-6.8,51.12,51.12,0,0,1,13.32-2.8q7.08-.56,13-0.56H201Zm-4.77,7.57q-3.51,0-8.76.35A50.61,50.61,0,0,0,177.39,67a22.23,22.23,0,0,0-8.27,4.14,9.41,9.41,0,0,0-3.44,7.71A10.92,10.92,0,0,0,167,84.34a11.09,11.09,0,0,0,3.58,3.79,15.23,15.23,0,0,0,5,2.1,24.55,24.55,0,0,0,5.54.63,21.09,21.09,0,0,0,8.76-1.68,17.84,17.84,0,0,0,10-11.29,27.63,27.63,0,0,0,1.19-8.2V64.92h-4.77ZM108.7,52.44q0-4.35-.21-8.83T108.14,32h9.11v12.2h0.28a20.39,20.39,0,0,1,2.8-5.12,22,22,0,0,1,4.42-4.42,21.69,21.69,0,0,1,6-3.15,23.66,23.66,0,0,1,7.78-1.19,25.12,25.12,0,0,1,6.87.84l-1.82,9.11a15.57,15.57,0,0,0-5.33-.7,19,19,0,0,0-9.11,2,20.21,20.21,0,0,0-6.31,5.19,21.55,21.55,0,0,0-3.72,6.8,22.54,22.54,0,0,0-1.19,7v37H108.7V52.44ZM38.55,97.59H28.45V-1.68H88.33V7.57H38.55V41.36H84.82v9.25H38.55v47Z" transform="translate(-15.36 1.68)"/></svg>