<?xml version="1.0" encoding="utf-8"?>
<!-- Generator: Adobe Illustrator 19.2.1, SVG Export Plug-In . SVG Version: 6.00 Build 0)  -->
<svg version="1.1" id="Layer_1" xmlns="http://www.w3.org/2000/svg" xmlns:xlink="http://www.w3.org/1999/xlink" x="0px" y="0px"
	 viewBox="0 0 42.9 38.8" style="enable-background:new 0 0 42.9 38.8;" xml:space="preserve">
<style type="text/css">
	.st0{fill-rule:evenodd;clip-rule:evenodd;}
	.st1{fill:none;stroke:#FFFFFF;stroke-width:4;stroke-miterlimit:10;}
</style>
<path class="st0" d="M25.9,32.6c0.2,0.3,0.5,0.4,0.9,0.4c0.3,0,0.6-0.1,0.8-0.3c0.5-0.5,0.5-1.3,0.1-1.9c-0.3-0.4-1.1-1.4-2.3-2.7
	C20.3,22.3,8.7,8.5,8,7.8c-0.6-0.6-1.4-1-2.1-1C5.5,6.8,5.2,6.9,4.9,7C4,7.4,3.5,8.4,3.5,9.6v20.8c0,1,0.5,1.8,1.3,2.2
	c0.3,0.1,0.6,0.2,1,0.2c0.8,0,1.6-0.4,2.2-1c0,0,0,0,0.1,0l6.8-5.4c0.5-0.5,0.5-1.3,0.1-1.9C14.7,24.2,14.4,24,14,24
	c-0.3,0-0.5,0.1-0.8,0.3c0,0,0,0,0,0l-6.6,5.2c-0.1,0.1-0.2,0.1-0.3,0.1c-0.1,0-0.2,0-0.3-0.1c-0.2-0.1-0.3-0.3-0.3-0.5V10.4
	c0-0.2,0.2-0.4,0.4-0.5c0.1,0,0.1,0,0.2,0c0.1,0,0.3,0.1,0.4,0.2L25.9,32.6z"/>
<path class="st0" d="M16.9,7.2c-0.2-0.3-0.5-0.4-0.9-0.4c-0.3,0-0.6,0.1-0.8,0.3c-0.5,0.5-0.5,1.3-0.1,1.9
	c2,2.4,18.8,22.1,19.6,23.1c0.6,0.6,1.4,1,2.2,1c0.3,0,0.7-0.1,1-0.2c0.9-0.4,1.5-1.4,1.5-2.6V9.5c0-1-0.5-1.8-1.3-2.1
	c-0.3-0.1-0.7-0.2-1-0.2c-0.8,0-1.7,0.4-2.2,1c0,0,0,0-0.1,0L28,13.6c-0.5,0.5-0.6,1.3-0.1,1.9c0.2,0.3,0.5,0.4,0.9,0.4
	c0.3,0,0.5-0.1,0.8-0.3c0,0,0,0,0,0l6.6-5.2c0.1-0.1,0.2-0.1,0.3-0.1c0.1,0,0.2,0,0.2,0.1c0.2,0.1,0.3,0.3,0.3,0.5v18.7
	c0,0.2-0.1,0.4-0.3,0.5c-0.1,0-0.1,0-0.2,0c-0.1,0-0.3-0.1-0.4-0.2L16.9,7.2z"/>
<polyline class="st1" points="14.5,5.9 37.5,32.9 37.5,6.8 26.7,15.6 "/>
<polyline class="st1" points="27.6,32.9 4.6,5.9 4.6,33 15.4,24.2 "/>
</svg>
